<svg xmlns="http://www.w3.org/2000/svg" xmlns:xlink="http://www.w3.org/1999/xlink" width="567" zoomAndPan="magnify" viewBox="0 0 425.25 283.500005" height="378" preserveAspectRatio="xMidYMid meet" version="1.0"><defs><clipPath id="53723bbbb2"><path d="M 307 3.335938 L 310 3.335938 L 310 24 L 307 24 Z M 307 3.335938 " clip-rule="nonzero"/></clipPath><clipPath id="e83df955c5"><path d="M 323 30 L 339.335938 30 L 339.335938 43 L 323 43 Z M 323 30 " clip-rule="nonzero"/></clipPath><clipPath id="4017f4df08"><path d="M 241 103 L 261 103 L 261 117 L 241 117 Z M 241 103 " clip-rule="nonzero"/></clipPath><clipPath id="8007b5204e"><path d="M 242.125 120.683594 L 240.257812 100.554688 L 261.875 98.546875 L 263.746094 118.671875 Z M 242.125 120.683594 " clip-rule="nonzero"/></clipPath><clipPath id="4c40d177b5"><path d="M 242.125 120.683594 L 240.257812 100.554688 L 261.875 98.546875 L 263.746094 118.671875 Z M 242.125 120.683594 " clip-rule="nonzero"/></clipPath><clipPath id="80c1f87862"><path d="M 255 98 L 264 98 L 264 119 L 255 119 Z M 255 98 " clip-rule="nonzero"/></clipPath><clipPath id="10db15256f"><path d="M 242.125 120.683594 L 240.257812 100.554688 L 261.875 98.546875 L 263.746094 118.671875 Z M 242.125 120.683594 " clip-rule="nonzero"/></clipPath><clipPath id="e47b5fe9fa"><path d="M 242.125 120.683594 L 240.257812 100.554688 L 261.875 98.546875 L 263.746094 118.671875 Z M 242.125 120.683594 " clip-rule="nonzero"/></clipPath><clipPath id="8188f3314d"><path d="M 243 106 L 251 106 L 251 114 L 243 114 Z M 243 106 " clip-rule="nonzero"/></clipPath><clipPath id="6b4f1d005b"><path d="M 242.125 120.683594 L 240.257812 100.554688 L 261.875 98.546875 L 263.746094 118.671875 Z M 242.125 120.683594 " clip-rule="nonzero"/></clipPath><clipPath id="a48234a3b6"><path d="M 242.125 120.683594 L 240.257812 100.554688 L 261.875 98.546875 L 263.746094 118.671875 Z M 242.125 120.683594 " clip-rule="nonzero"/></clipPath></defs><path fill="#2c56fe" d="M 102.804688 67.25 L 100.464844 52.566406 C 99.996094 49.582031 101.582031 46.617188 104.324219 45.351562 L 144.363281 27.058594 C 147.722656 30.03125 148.289062 35.058594 147.878906 39.53125 C 147.710938 41.335938 147.386719 43.398438 146.292969 45.070312 C 144.171875 48.398438 139.859375 49.171875 137.5 49.324219 C 132.125 49.71875 124.839844 47.828125 121.804688 51.105469 C 117.839844 55.375 124.15625 62.324219 117.0625 66.714844 C 113.109375 69.183594 106.636719 69.230469 102.804688 67.25 Z M 102.804688 67.25 " fill-opacity="1" fill-rule="nonzero"/><path fill="#2c56fe" d="M 262.074219 68.195312 C 263.554688 70.300781 263.574219 73.433594 262.140625 76.160156 C 260.703125 78.929688 258.171875 80.882812 256.113281 82.300781 C 243.449219 90.925781 231.566406 89.167969 227.699219 85.414062 C 226.027344 83.78125 225.339844 81.378906 226.046875 79.53125 C 226.789062 77.554688 229.664062 75.429688 229.136719 72.726562 C 228.523438 69.671875 225.074219 69.730469 223.515625 68.410156 C 220.429688 65.875 220.878906 59.714844 223.410156 56.472656 C 225.941406 53.207031 232.652344 50.074219 238.484375 50.074219 C 247.730469 50.074219 247.191406 56.730469 247.855469 59.949219 C 249.023438 65.984375 253.761719 64.710938 254.054688 64.890625 C 256.199219 64.910156 260.101562 65.359375 262.074219 68.195312 Z M 262.074219 68.195312 " fill-opacity="1" fill-rule="nonzero"/><path fill="#2c56fe" d="M 211.445312 128.570312 C 207.453125 127.238281 202.78125 127.839844 198.210938 128.742188 C 196.261719 129.128906 194.265625 129.539062 192.335938 128.894531 C 189.375 127.882812 187.402344 124.511719 187.082031 119.875 C 186.808594 116.492188 187.152344 112.792969 185.539062 109.890625 C 182.730469 104.804688 175.136719 104.332031 169.433594 106.457031 C 158.929688 110.355469 157.726562 118.828125 153.371094 127.96875 C 146.394531 142.949219 153.800781 160.570312 169.046875 166.1875 C 175.191406 168.453125 175.980469 165.222656 177.945312 163.355469 C 179.984375 161.464844 183.285156 160.863281 187.039062 161.699219 C 190.015625 162.355469 192.769531 163.683594 195.789062 164.0625 C 206.613281 165.527344 218.8125 153.804688 219.871094 142.914062 C 220.453125 136.761719 217.269531 130.367188 211.445312 128.570312 Z M 211.445312 128.570312 C 207.453125 127.238281 202.78125 127.839844 198.210938 128.742188 C 196.261719 129.128906 194.265625 129.539062 192.335938 128.894531 C 189.375 127.882812 187.402344 124.511719 187.082031 119.875 C 186.808594 116.492188 187.152344 112.792969 185.539062 109.890625 C 182.730469 104.804688 175.136719 104.332031 169.433594 106.457031 C 158.929688 110.355469 157.726562 118.828125 153.371094 127.96875 C 146.394531 142.949219 153.800781 160.570312 169.046875 166.1875 C 175.191406 168.453125 175.980469 165.222656 177.945312 163.355469 C 179.984375 161.464844 183.285156 160.863281 187.039062 161.699219 C 190.015625 162.355469 192.769531 163.683594 195.789062 164.0625 C 206.613281 165.527344 218.8125 153.804688 219.871094 142.914062 C 220.453125 136.761719 217.269531 130.367188 211.445312 128.570312 Z M 211.445312 128.570312 C 207.453125 127.238281 202.78125 127.839844 198.210938 128.742188 C 196.261719 129.128906 194.265625 129.539062 192.335938 128.894531 C 189.375 127.882812 187.402344 124.511719 187.082031 119.875 C 186.808594 116.492188 187.152344 112.792969 185.539062 109.890625 C 182.730469 104.804688 175.136719 104.332031 169.433594 106.457031 C 158.929688 110.355469 157.726562 118.828125 153.371094 127.96875 C 146.394531 142.949219 153.800781 160.570312 169.046875 166.1875 C 175.191406 168.453125 175.980469 165.222656 177.945312 163.355469 C 179.984375 161.464844 183.285156 160.863281 187.039062 161.699219 C 190.015625 162.355469 192.769531 163.683594 195.789062 164.0625 C 206.613281 165.527344 218.8125 153.804688 219.871094 142.914062 C 220.453125 136.761719 217.269531 130.367188 211.445312 128.570312 Z M 211.445312 128.570312 C 207.453125 127.238281 202.78125 127.839844 198.210938 128.742188 C 196.261719 129.128906 194.265625 129.539062 192.335938 128.894531 C 189.375 127.882812 187.402344 124.511719 187.082031 119.875 C 186.808594 116.492188 187.152344 112.792969 185.539062 109.890625 C 182.730469 104.804688 175.136719 104.332031 169.433594 106.457031 C 158.929688 110.355469 157.726562 118.828125 153.371094 127.96875 C 146.394531 142.949219 153.800781 160.570312 169.046875 166.1875 C 175.191406 168.453125 175.980469 165.222656 177.945312 163.355469 C 179.984375 161.464844 183.285156 160.863281 187.039062 161.699219 C 190.015625 162.355469 192.769531 163.683594 195.789062 164.0625 C 206.613281 165.527344 218.8125 153.804688 219.871094 142.914062 C 220.453125 136.761719 217.269531 130.367188 211.445312 128.570312 Z M 211.445312 128.570312 C 207.453125 127.238281 202.78125 127.839844 198.210938 128.742188 C 196.261719 129.128906 194.265625 129.539062 192.335938 128.894531 C 189.375 127.882812 187.402344 124.511719 187.082031 119.875 C 186.808594 116.492188 187.152344 112.792969 185.539062 109.890625 C 182.730469 104.804688 175.136719 104.332031 169.433594 106.457031 C 158.929688 110.355469 157.726562 118.828125 153.371094 127.96875 C 146.394531 142.949219 153.800781 160.570312 169.046875 166.1875 C 175.191406 168.453125 175.980469 165.222656 177.945312 163.355469 C 179.984375 161.464844 183.285156 160.863281 187.039062 161.699219 C 190.015625 162.355469 192.769531 163.683594 195.789062 164.0625 C 206.613281 165.527344 218.8125 153.804688 219.871094 142.914062 C 220.453125 136.761719 217.269531 130.367188 211.445312 128.570312 Z M 236.019531 121.054688 C 229.285156 121.054688 223.839844 126.507812 223.839844 133.25 C 223.839844 139.972656 229.285156 145.445312 236.019531 145.445312 C 242.753906 145.445312 248.199219 139.972656 248.199219 133.25 C 248.199219 126.507812 242.753906 121.054688 236.019531 121.054688 Z M 236.019531 121.054688 C 229.285156 121.054688 223.839844 126.507812 223.839844 133.25 C 223.839844 139.972656 229.285156 145.445312 236.019531 145.445312 C 242.753906 145.445312 248.199219 139.972656 248.199219 133.25 C 248.199219 126.507812 242.753906 121.054688 236.019531 121.054688 Z M 211.445312 128.570312 C 207.453125 127.238281 202.78125 127.839844 198.210938 128.742188 C 196.261719 129.128906 194.265625 129.539062 192.335938 128.894531 C 189.375 127.882812 187.402344 124.511719 187.082031 119.875 C 186.808594 116.492188 187.152344 112.792969 185.539062 109.890625 C 182.730469 104.804688 175.136719 104.332031 169.433594 106.457031 C 158.929688 110.355469 157.726562 118.828125 153.371094 127.96875 C 146.394531 142.949219 153.800781 160.570312 169.046875 166.1875 C 175.191406 168.453125 175.980469 165.222656 177.945312 163.355469 C 179.984375 161.464844 183.285156 160.863281 187.039062 161.699219 C 190.015625 162.355469 192.769531 163.683594 195.789062 164.0625 C 206.613281 165.527344 218.8125 153.804688 219.871094 142.914062 C 220.453125 136.761719 217.269531 130.367188 211.445312 128.570312 Z M 211.445312 128.570312 C 207.453125 127.238281 202.78125 127.839844 198.210938 128.742188 C 196.261719 129.128906 194.265625 129.539062 192.335938 128.894531 C 189.375 127.882812 187.402344 124.511719 187.082031 119.875 C 186.808594 116.492188 187.152344 112.792969 185.539062 109.890625 C 182.730469 104.804688 175.136719 104.332031 169.433594 106.457031 C 158.929688 110.355469 157.726562 118.828125 153.371094 127.96875 C 146.394531 142.949219 153.800781 160.570312 169.046875 166.1875 C 175.191406 168.453125 175.980469 165.222656 177.945312 163.355469 C 179.984375 161.464844 183.285156 160.863281 187.039062 161.699219 C 190.015625 162.355469 192.769531 163.683594 195.789062 164.0625 C 206.613281 165.527344 218.8125 153.804688 219.871094 142.914062 C 220.453125 136.761719 217.269531 130.367188 211.445312 128.570312 Z M 236.019531 121.054688 C 229.285156 121.054688 223.839844 126.507812 223.839844 133.25 C 223.839844 139.972656 229.285156 145.445312 236.019531 145.445312 C 242.753906 145.445312 248.199219 139.972656 248.199219 133.25 C 248.199219 126.507812 242.753906 121.054688 236.019531 121.054688 Z M 236.019531 121.054688 C 229.285156 121.054688 223.839844 126.507812 223.839844 133.25 C 223.839844 139.972656 229.285156 145.445312 236.019531 145.445312 C 242.753906 145.445312 248.199219 139.972656 248.199219 133.25 C 248.199219 126.507812 242.753906 121.054688 236.019531 121.054688 Z M 211.445312 128.570312 C 207.453125 127.238281 202.78125 127.839844 198.210938 128.742188 C 196.261719 129.128906 194.265625 129.539062 192.335938 128.894531 C 189.375 127.882812 187.402344 124.511719 187.082031 119.875 C 186.808594 116.492188 187.152344 112.792969 185.539062 109.890625 C 182.730469 104.804688 175.136719 104.332031 169.433594 106.457031 C 158.929688 110.355469 157.726562 118.828125 153.371094 127.96875 C 146.394531 142.949219 153.800781 160.570312 169.046875 166.1875 C 175.191406 168.453125 175.980469 165.222656 177.945312 163.355469 C 179.984375 161.464844 183.285156 160.863281 187.039062 161.699219 C 190.015625 162.355469 192.769531 163.683594 195.789062 164.0625 C 206.613281 165.527344 218.8125 153.804688 219.871094 142.914062 C 220.453125 136.761719 217.269531 130.367188 211.445312 128.570312 Z M 302.132812 32.46875 L 239.234375 43.742188 C 237.820312 43.996094 236.382812 43.828125 235.074219 43.269531 L 172.800781 16.128906 C 170.890625 15.292969 168.746094 15.3125 166.882812 16.171875 L 144.984375 26.175781 C 149.210938 29.785156 149.273438 36.140625 148.953125 39.617188 C 148.761719 41.550781 148.417969 43.785156 147.195312 45.671875 C 144.8125 49.386719 140.140625 50.222656 137.566406 50.394531 C 132.085938 50.789062 125.132812 49.039062 122.597656 51.835938 C 119.234375 55.464844 125.238281 62.925781 117.621094 67.636719 C 113.234375 70.382812 105.972656 70.238281 102.417969 68.238281 L 123.496094 200.304688 L 149.746094 200.304688 L 188.496094 181.796875 C 190.320312 180.894531 192.441406 180.832031 194.351562 181.582031 L 246.546875 202.753906 C 249.453125 203.9375 251.050781 202.902344 261.539062 201.894531 C 267.738281 190.875 282.238281 184.070312 294.519531 188.988281 C 295.59375 189.40625 297.984375 190.59375 298.789062 191.265625 C 313.289062 6.839844 310.234375 45.691406 310.667969 40.175781 C 311.035156 35.453125 306.832031 31.628906 302.132812 32.46875 Z M 222.550781 55.808594 C 225.660156 51.835938 234.132812 48.121094 240.824219 49.171875 C 244.382812 49.710938 246.847656 51.578125 247.941406 54.519531 C 248.621094 56.375 248.535156 58 248.90625 59.734375 C 249.078125 60.636719 249.679688 62.828125 251.375 63.515625 C 251.636719 63.621094 251.847656 63.792969 254.054688 63.816406 C 256.414062 63.835938 260.703125 64.351562 262.953125 67.574219 C 264.648438 70.019531 264.710938 73.585938 263.105469 76.65625 C 260.261719 82.074219 248.953125 89.582031 237.886719 89.582031 C 226.941406 89.582031 223.425781 83.425781 225.039062 79.144531 C 225.792969 77.09375 228.5 75.058594 228.085938 72.941406 C 227.597656 70.574219 224.691406 70.773438 222.832031 69.246094 C 219.3125 66.328125 219.742188 59.414062 222.550781 55.808594 Z M 234.109375 168.894531 L 234.109375 150.191406 C 234.109375 150.191406 237.371094 150.472656 238.570312 150.191406 L 239.234375 171.941406 Z M 249.828125 176.878906 C 247.972656 172.242188 247.242188 165.082031 248.949219 160.046875 C 251.03125 153.90625 256.714844 149.632812 262.71875 147.25 C 267.914062 145.199219 267.726562 144.363281 267.84375 136.601562 L 253.023438 136.449219 C 251.523438 144.289062 244.660156 150.214844 236.40625 150.214844 C 229.542969 150.214844 223.644531 146.132812 220.964844 140.273438 C 221.828125 152.375 208.089844 166.769531 195.636719 165.136719 C 192.582031 164.734375 189.8125 163.4375 186.804688 162.753906 C 185.195312 162.386719 181.183594 161.808594 178.675781 164.148438 C 176.945312 165.691406 175.71875 169.75 168.683594 167.195312 C 152.753906 161.320312 145.183594 142.984375 152.40625 127.519531 C 156.863281 118.035156 158.128906 109.515625 169.066406 105.445312 C 175.324219 103.136719 183.308594 103.671875 186.480469 109.355469 C 188.246094 112.527344 187.867188 116.269531 188.152344 119.8125 C 188.261719 121.378906 188.925781 126.59375 192.679688 127.863281 C 194.332031 128.441406 196.195312 128.054688 197.996094 127.691406 C 207.210938 125.847656 215.480469 126.015625 219.507812 134.605469 C 218.65625 125.683594 225.347656 117.375 234.582031 116.398438 C 234.433594 115 234.539062 113.027344 234.476562 112.230469 C 233.480469 100.070312 233.308594 99.90625 233.851562 99.027344 C 234.390625 98.105469 235.546875 97.996094 236.511719 98.039062 C 237.285156 98.09375 237.65625 98.253906 237.777344 99.519531 C 238.207031 105.1875 238.65625 110.835938 239.105469 116.503906 C 246.847656 117.75 252.832031 124.253906 253.304688 132.265625 L 267.84375 132.265625 C 267.585938 119.464844 264.339844 94.9375 264.820312 93.25 C 270.4375 94.882812 275.628906 97.933594 280.625 101.089844 C 281.375 111.480469 282.148438 121.871094 282.875 132.265625 L 293.769531 132.265625 L 293.769531 136.859375 L 283.199219 136.75 C 283.433594 141.667969 283.199219 146.734375 280.390625 150.664062 C 277.902344 154.121094 273.847656 155.988281 270.222656 158.222656 C 258.433594 165.488281 263.988281 171.21875 262.910156 176.492188 C 258.578125 177.03125 254.203125 177.074219 249.828125 176.878906 Z M 236.019531 121.054688 C 229.285156 121.054688 223.839844 126.507812 223.839844 133.25 C 223.839844 139.972656 229.285156 145.445312 236.019531 145.445312 C 242.753906 145.445312 248.199219 139.972656 248.199219 133.25 C 248.199219 126.507812 242.753906 121.054688 236.019531 121.054688 Z M 211.445312 128.570312 C 207.453125 127.238281 202.78125 127.839844 198.210938 128.742188 C 196.261719 129.128906 194.265625 129.539062 192.335938 128.894531 C 189.375 127.882812 187.402344 124.511719 187.082031 119.875 C 186.808594 116.492188 187.152344 112.792969 185.539062 109.890625 C 182.730469 104.804688 175.136719 104.332031 169.433594 106.457031 C 158.929688 110.355469 157.726562 118.828125 153.371094 127.96875 C 146.394531 142.949219 153.800781 160.570312 169.046875 166.1875 C 175.191406 168.453125 175.980469 165.222656 177.945312 163.355469 C 179.984375 161.464844 183.285156 160.863281 187.039062 161.699219 C 190.015625 162.355469 192.769531 163.683594 195.789062 164.0625 C 206.613281 165.527344 218.8125 153.804688 219.871094 142.914062 C 220.453125 136.761719 217.269531 130.367188 211.445312 128.570312 Z M 211.445312 128.570312 C 207.453125 127.238281 202.78125 127.839844 198.210938 128.742188 C 196.261719 129.128906 194.265625 129.539062 192.335938 128.894531 C 189.375 127.882812 187.402344 124.511719 187.082031 119.875 C 186.808594 116.492188 187.152344 112.792969 185.539062 109.890625 C 182.730469 104.804688 175.136719 104.332031 169.433594 106.457031 C 158.929688 110.355469 157.726562 118.828125 153.371094 127.96875 C 146.394531 142.949219 153.800781 160.570312 169.046875 166.1875 C 175.191406 168.453125 175.980469 165.222656 177.945312 163.355469 C 179.984375 161.464844 183.285156 160.863281 187.039062 161.699219 C 190.015625 162.355469 192.769531 163.683594 195.789062 164.0625 C 206.613281 165.527344 218.8125 153.804688 219.871094 142.914062 C 220.453125 136.761719 217.269531 130.367188 211.445312 128.570312 Z M 236.019531 121.054688 C 229.285156 121.054688 223.839844 126.507812 223.839844 133.25 C 223.839844 139.972656 229.285156 145.445312 236.019531 145.445312 C 242.753906 145.445312 248.199219 139.972656 248.199219 133.25 C 248.199219 126.507812 242.753906 121.054688 236.019531 121.054688 Z M 236.019531 121.054688 C 229.285156 121.054688 223.839844 126.507812 223.839844 133.25 C 223.839844 139.972656 229.285156 145.445312 236.019531 145.445312 C 242.753906 145.445312 248.199219 139.972656 248.199219 133.25 C 248.199219 126.507812 242.753906 121.054688 236.019531 121.054688 Z M 211.445312 128.570312 C 207.453125 127.238281 202.78125 127.839844 198.210938 128.742188 C 196.261719 129.128906 194.265625 129.539062 192.335938 128.894531 C 189.375 127.882812 187.402344 124.511719 187.082031 119.875 C 186.808594 116.492188 187.152344 112.792969 185.539062 109.890625 C 182.730469 104.804688 175.136719 104.332031 169.433594 106.457031 C 158.929688 110.355469 157.726562 118.828125 153.371094 127.96875 C 146.394531 142.949219 153.800781 160.570312 169.046875 166.1875 C 175.191406 168.453125 175.980469 165.222656 177.945312 163.355469 C 179.984375 161.464844 183.285156 160.863281 187.039062 161.699219 C 190.015625 162.355469 192.769531 163.683594 195.789062 164.0625 C 206.613281 165.527344 218.8125 153.804688 219.871094 142.914062 C 220.453125 136.761719 217.269531 130.367188 211.445312 128.570312 Z M 211.445312 128.570312 C 207.453125 127.238281 202.78125 127.839844 198.210938 128.742188 C 196.261719 129.128906 194.265625 129.539062 192.335938 128.894531 C 189.375 127.882812 187.402344 124.511719 187.082031 119.875 C 186.808594 116.492188 187.152344 112.792969 185.539062 109.890625 C 182.730469 104.804688 175.136719 104.332031 169.433594 106.457031 C 158.929688 110.355469 157.726562 118.828125 153.371094 127.96875 C 146.394531 142.949219 153.800781 160.570312 169.046875 166.1875 C 175.191406 168.453125 175.980469 165.222656 177.945312 163.355469 C 179.984375 161.464844 183.285156 160.863281 187.039062 161.699219 C 190.015625 162.355469 192.769531 163.683594 195.789062 164.0625 C 206.613281 165.527344 218.8125 153.804688 219.871094 142.914062 C 220.453125 136.761719 217.269531 130.367188 211.445312 128.570312 Z M 236.019531 121.054688 C 229.285156 121.054688 223.839844 126.507812 223.839844 133.25 C 223.839844 139.972656 229.285156 145.445312 236.019531 145.445312 C 242.753906 145.445312 248.199219 139.972656 248.199219 133.25 C 248.199219 126.507812 242.753906 121.054688 236.019531 121.054688 Z M 236.019531 121.054688 C 229.285156 121.054688 223.839844 126.507812 223.839844 133.25 C 223.839844 139.972656 229.285156 145.445312 236.019531 145.445312 C 242.753906 145.445312 248.199219 139.972656 248.199219 133.25 C 248.199219 126.507812 242.753906 121.054688 236.019531 121.054688 Z M 211.445312 128.570312 C 207.453125 127.238281 202.78125 127.839844 198.210938 128.742188 C 196.261719 129.128906 194.265625 129.539062 192.335938 128.894531 C 189.375 127.882812 187.402344 124.511719 187.082031 119.875 C 186.808594 116.492188 187.152344 112.792969 185.539062 109.890625 C 182.730469 104.804688 175.136719 104.332031 169.433594 106.457031 C 158.929688 110.355469 157.726562 118.828125 153.371094 127.96875 C 146.394531 142.949219 153.800781 160.570312 169.046875 166.1875 C 175.191406 168.453125 175.980469 165.222656 177.945312 163.355469 C 179.984375 161.464844 183.285156 160.863281 187.039062 161.699219 C 190.015625 162.355469 192.769531 163.683594 195.789062 164.0625 C 206.613281 165.527344 218.8125 153.804688 219.871094 142.914062 C 220.453125 136.761719 217.269531 130.367188 211.445312 128.570312 Z M 211.445312 128.570312 C 207.453125 127.238281 202.78125 127.839844 198.210938 128.742188 C 196.261719 129.128906 194.265625 129.539062 192.335938 128.894531 C 189.375 127.882812 187.402344 124.511719 187.082031 119.875 C 186.808594 116.492188 187.152344 112.792969 185.539062 109.890625 C 182.730469 104.804688 175.136719 104.332031 169.433594 106.457031 C 158.929688 110.355469 157.726562 118.828125 153.371094 127.96875 C 146.394531 142.949219 153.800781 160.570312 169.046875 166.1875 C 175.191406 168.453125 175.980469 165.222656 177.945312 163.355469 C 179.984375 161.464844 183.285156 160.863281 187.039062 161.699219 C 190.015625 162.355469 192.769531 163.683594 195.789062 164.0625 C 206.613281 165.527344 218.8125 153.804688 219.871094 142.914062 C 220.453125 136.761719 217.269531 130.367188 211.445312 128.570312 Z M 211.445312 128.570312 C 207.453125 127.238281 202.78125 127.839844 198.210938 128.742188 C 196.261719 129.128906 194.265625 129.539062 192.335938 128.894531 C 189.375 127.882812 187.402344 124.511719 187.082031 119.875 C 186.808594 116.492188 187.152344 112.792969 185.539062 109.890625 C 182.730469 104.804688 175.136719 104.332031 169.433594 106.457031 C 158.929688 110.355469 157.726562 118.828125 153.371094 127.96875 C 146.394531 142.949219 153.800781 160.570312 169.046875 166.1875 C 175.191406 168.453125 175.980469 165.222656 177.945312 163.355469 C 179.984375 161.464844 183.285156 160.863281 187.039062 161.699219 C 190.015625 162.355469 192.769531 163.683594 195.789062 164.0625 C 206.613281 165.527344 218.8125 153.804688 219.871094 142.914062 C 220.453125 136.761719 217.269531 130.367188 211.445312 128.570312 Z M 211.445312 128.570312 " fill-opacity="1" fill-rule="nonzero"/><path fill="#000000" d="M 191.136719 180.527344 L 168.882812 15.050781 C 168.785156 14.332031 169.855469 14.234375 169.941406 14.910156 L 192.199219 180.386719 C 192.292969 181.089844 191.230469 181.242188 191.136719 180.527344 Z M 191.136719 180.527344 " fill-opacity="1" fill-rule="nonzero"/><path fill="#000000" d="M 234.996094 89.765625 C 235.75 60.277344 236.175781 44.871094 236.257812 43.964844 C 236.324219 43.25 237.390625 43.359375 237.328125 44.058594 C 237.269531 44.667969 237.007812 53.09375 236.066406 89.792969 C 236.050781 90.507812 234.976562 90.480469 234.996094 89.765625 Z M 234.996094 89.765625 " fill-opacity="1" fill-rule="nonzero"/><path fill="#000000" d="M 146.0625 159.742188 C 145.574219 161.304688 144.503906 162.617188 143.324219 163.753906 C 138.691406 168.230469 122.085938 173.398438 126.742188 161.417969 C 129.585938 154.105469 149.261719 149.488281 146.0625 159.742188 Z M 146.0625 159.742188 " fill-opacity="1" fill-rule="nonzero"/><path fill="#000000" d="M 126.242188 161.222656 C 129.347656 153.238281 150.023438 148.851562 146.574219 159.898438 C 143.894531 168.492188 120.742188 175.375 126.242188 161.222656 Z M 127.242188 161.613281 C 126.074219 164.613281 126.214844 166.621094 127.652344 167.578125 C 131.179688 169.933594 143.621094 165.773438 145.550781 159.582031 C 148.464844 150.246094 129.890625 154.796875 127.242188 161.613281 Z M 127.242188 161.613281 " fill-opacity="1" fill-rule="nonzero"/><path fill="#000000" d="M 299.640625 65.140625 C 298.507812 66.324219 296.960938 67.019531 295.402344 67.515625 C 289.261719 69.457031 272.097656 66.671875 281.597656 58.023438 C 287.394531 52.746094 307.066406 57.390625 299.640625 65.140625 Z M 299.640625 65.140625 " fill-opacity="1" fill-rule="nonzero"/><path fill="#000000" d="M 290.671875 68.625 C 281.03125 68.625 274.015625 64.199219 281.238281 57.628906 C 287.542969 51.882812 308.046875 57.140625 300.027344 65.511719 C 297.726562 67.914062 294.015625 68.625 290.671875 68.625 Z M 281.957031 58.421875 C 279.578125 60.589844 278.808594 62.445312 279.667969 63.945312 C 281.78125 67.625 294.769531 69.453125 299.25 64.769531 C 306 57.726562 287.375 53.488281 281.957031 58.421875 Z M 281.957031 58.421875 " fill-opacity="1" fill-rule="nonzero"/><path fill="#000000" d="M 154.757812 90.25 C 143.136719 83.773438 132.089844 76.144531 121.917969 67.566406 C 121.375 67.105469 122.066406 66.285156 122.609375 66.742188 C 132.726562 75.277344 143.71875 82.867188 155.28125 89.308594 C 155.898438 89.65625 155.378906 90.59375 154.757812 90.25 Z M 154.757812 90.25 " fill-opacity="1" fill-rule="nonzero"/><path fill="#000000" d="M 127.335938 93.628906 C 133.570312 85.515625 139.359375 76.9375 144.546875 68.132812 C 146.285156 65.175781 147.902344 62.253906 148.542969 59.054688 C 148.679688 58.359375 149.734375 58.570312 149.59375 59.265625 C 148.921875 62.628906 147.257812 65.636719 145.46875 68.675781 C 140.261719 77.519531 134.445312 86.136719 128.1875 94.285156 C 127.753906 94.847656 126.902344 94.195312 127.335938 93.628906 Z M 127.335938 93.628906 " fill-opacity="1" fill-rule="nonzero"/><path fill="#000000" d="M 150.480469 163.625 C 149.78125 163.625 149.765625 162.570312 150.460938 162.550781 C 154 162.445312 157.589844 162.222656 161.128906 161.894531 C 161.792969 161.785156 161.96875 162.894531 161.226562 162.964844 C 157.667969 163.292969 154.054688 163.515625 150.496094 163.625 C 150.488281 163.625 150.484375 163.625 150.480469 163.625 Z M 171.734375 160.578125 C 174.941406 160.078125 179.050781 159.339844 182.214844 158.554688 C 182.882812 158.355469 183.175781 159.421875 182.472656 159.59375 C 179.269531 160.394531 175.027344 161.148438 171.902344 161.636719 C 171.1875 161.742188 171.046875 160.683594 171.734375 160.578125 Z M 192.089844 154.835938 C 195.230469 153.054688 197.761719 150.789062 199.484375 147.675781 C 199.828125 147.054688 200.769531 147.574219 200.425781 148.195312 C 198.617188 151.476562 195.832031 153.949219 192.617188 155.769531 C 191.996094 156.117188 191.472656 155.1875 192.089844 154.835938 Z M 201.832031 137.585938 C 201.78125 136.769531 202.082031 135.996094 200.972656 126.964844 C 200.882812 126.265625 201.949219 126.125 202.035156 126.835938 C 203.179688 136.128906 202.867188 136.964844 202.90625 137.601562 C 202.894531 138.316406 201.824219 138.300781 201.832031 137.585938 Z M 200.25 116.179688 C 200.371094 112.621094 200.953125 109.023438 201.976562 105.480469 C 202.171875 104.800781 203.203125 105.097656 203.007812 105.78125 C 202.007812 109.234375 201.441406 112.746094 201.320312 116.214844 C 201.292969 116.929688 200.222656 116.890625 200.25 116.179688 Z M 206.113281 95.476562 C 207.808594 92.359375 209.847656 89.347656 212.179688 86.523438 C 212.636719 85.972656 213.457031 86.660156 213.007812 87.203125 C 210.71875 89.976562 208.714844 92.933594 207.054688 95.988281 C 206.71875 96.613281 205.773438 96.101562 206.113281 95.476562 Z M 219.777344 78.828125 C 222.542969 76.480469 225.511719 74.382812 228.601562 72.585938 C 229.203125 72.222656 229.761719 73.152344 229.140625 73.511719 C 226.105469 75.277344 223.1875 77.34375 220.472656 79.644531 C 219.933594 80.105469 219.234375 79.285156 219.777344 78.828125 Z M 238.320312 67.890625 C 241.574219 66.601562 245.027344 65.492188 248.589844 64.589844 C 248.875 64.507812 249.167969 64.691406 249.238281 64.980469 C 249.523438 66.089844 247.625 65.359375 238.714844 68.886719 C 238.054688 69.148438 237.664062 68.152344 238.320312 67.890625 Z M 259.167969 62.539062 C 262.601562 62.0625 266.210938 61.730469 269.890625 61.554688 C 270.640625 61.582031 270.609375 62.59375 269.9375 62.628906 C 266.292969 62.800781 262.71875 63.128906 259.316406 63.605469 C 258.578125 63.664062 258.492188 62.636719 259.167969 62.539062 Z M 259.167969 62.539062 " fill-opacity="1" fill-rule="nonzero"/><path fill="#000000" d="M 181.496094 60.492188 C 183.003906 52.671875 186.574219 45.472656 190.023438 38.503906 C 193.773438 30.945312 198.496094 36.417969 202.109375 44.003906 C 203.242188 46.382812 204.347656 48.792969 205.390625 51.167969 C 205.675781 51.8125 204.699219 52.257812 204.410156 51.601562 C 203.371094 49.234375 202.269531 46.835938 201.140625 44.46875 C 199.75 41.546875 198.308594 38.769531 196.007812 36.855469 C 195.3125 36.273438 194.761719 36 194.226562 35.964844 C 193.078125 35.921875 192.03125 36.875 190.984375 38.980469 C 187.566406 45.882812 184.027344 53.023438 182.550781 60.699219 C 182.410156 61.398438 181.363281 61.1875 181.496094 60.492188 Z M 181.496094 60.492188 " fill-opacity="1" fill-rule="nonzero"/><path fill="#000000" d="M 201.726562 61.066406 C 202.914062 55.152344 204.992188 49.488281 207.902344 44.21875 C 208.667969 42.832031 209.671875 41.375 211.292969 41.082031 C 212.957031 40.78125 214.644531 41.828125 216.164062 44.105469 C 217.949219 46.785156 219.34375 49.699219 220.3125 52.773438 C 220.527344 53.449219 219.507812 53.777344 219.292969 53.097656 C 218.28125 49.890625 214.78125 41.546875 211.484375 42.140625 C 210.300781 42.351562 209.484375 43.570312 208.84375 44.738281 C 205.980469 49.910156 203.941406 55.476562 202.777344 61.277344 C 202.636719 61.972656 201.582031 61.761719 201.726562 61.066406 Z M 201.726562 61.066406 " fill-opacity="1" fill-rule="nonzero"/><path fill="#000000" d="M 134.160156 121.347656 C 131.203125 119.847656 128.039062 118.855469 124.753906 118.394531 C 124.089844 118.300781 124.148438 117.296875 124.902344 117.332031 C 127.734375 117.726562 130.476562 118.507812 133.082031 119.648438 C 131.019531 115.507812 130.960938 110.421875 133.027344 106.253906 C 133.347656 105.617188 134.304688 106.09375 133.988281 106.730469 C 131.828125 111.085938 132.167969 116.515625 134.851562 120.574219 C 135.15625 121.03125 134.640625 121.597656 134.160156 121.347656 Z M 134.160156 121.347656 " fill-opacity="1" fill-rule="nonzero"/><path fill="#000000" d="M 146.617188 114.691406 C 144.253906 113.570312 141.773438 112.621094 139.25 111.863281 C 138.566406 111.664062 138.882812 110.628906 139.554688 110.835938 C 141.746094 111.492188 143.90625 112.292969 145.988281 113.222656 C 145.0625 109.8125 145.035156 106.125 145.925781 102.714844 C 146.101562 102.039062 147.144531 102.296875 146.960938 102.988281 C 146.019531 106.585938 146.160156 110.511719 147.355469 114.035156 C 147.507812 114.488281 147.035156 114.894531 146.617188 114.691406 Z M 146.617188 114.691406 " fill-opacity="1" fill-rule="nonzero"/><g clip-path="url(#53723bbbb2)"><path fill="#000000" d="M 307.992188 22.832031 C 307.046875 16.585938 307.09375 10.253906 308.128906 4.019531 C 308.242188 3.332031 309.304688 3.488281 309.1875 4.195312 C 308.171875 10.320312 308.128906 16.535156 309.050781 22.671875 C 309.15625 23.375 308.097656 23.535156 307.992188 22.832031 Z M 307.992188 22.832031 " fill-opacity="1" fill-rule="nonzero"/></g><path fill="#000000" d="M 314.886719 31.027344 C 320.398438 24.597656 325.097656 17.492188 328.855469 9.898438 C 329.164062 9.265625 330.128906 9.734375 329.8125 10.375 C 326.019531 18.046875 321.269531 25.230469 315.699219 31.730469 C 315.246094 32.265625 314.421875 31.574219 314.886719 31.027344 Z M 314.886719 31.027344 " fill-opacity="1" fill-rule="nonzero"/><g clip-path="url(#e83df955c5)"><path fill="#000000" d="M 323.730469 41.0625 L 338.253906 30.953125 C 338.832031 30.539062 339.449219 31.429688 338.863281 31.832031 L 324.339844 41.945312 C 323.765625 42.351562 323.144531 41.472656 323.730469 41.0625 Z M 323.730469 41.0625 " fill-opacity="1" fill-rule="nonzero"/></g><path fill="#000000" d="M 269.332031 180.253906 C 269.808594 177.289062 274.238281 175.773438 276.34375 174.492188 C 280.898438 171.722656 284.242188 167.371094 287.28125 162.992188 C 291.066406 157.53125 294.582031 151.8125 296.839844 145.5625 C 301.824219 131.773438 299.324219 119.425781 288.769531 108.921875 C 280.902344 101.089844 266.265625 93.308594 256.507812 91.019531 C 250.265625 89.554688 242.003906 89.140625 240.628906 87.460938 C 238.621094 85.007812 251.808594 82.648438 253.730469 82.398438 C 269.78125 80.332031 285.574219 86.050781 296.617188 97.667969 C 322 124.378906 311.671875 167.164062 279.125 180.179688 C 276.414062 181.265625 273.972656 182.472656 270.96875 182.113281 C 269.792969 181.972656 269.140625 181.464844 269.332031 180.253906 Z M 269.332031 180.253906 " fill-opacity="1" fill-rule="nonzero"/><path fill="#2c56fe" d="M 236.019531 121.054688 C 229.285156 121.054688 223.839844 126.507812 223.839844 133.25 C 223.839844 139.972656 229.285156 145.445312 236.019531 145.445312 C 242.753906 145.445312 248.199219 139.972656 248.199219 133.25 C 248.199219 126.507812 242.753906 121.054688 236.019531 121.054688 Z M 236.019531 121.054688 C 229.285156 121.054688 223.839844 126.507812 223.839844 133.25 C 223.839844 139.972656 229.285156 145.445312 236.019531 145.445312 C 242.753906 145.445312 248.199219 139.972656 248.199219 133.25 C 248.199219 126.507812 242.753906 121.054688 236.019531 121.054688 Z M 236.019531 121.054688 C 229.285156 121.054688 223.839844 126.507812 223.839844 133.25 C 223.839844 139.972656 229.285156 145.445312 236.019531 145.445312 C 242.753906 145.445312 248.199219 139.972656 248.199219 133.25 C 248.199219 126.507812 242.753906 121.054688 236.019531 121.054688 Z M 236.40625 150.214844 C 229.542969 150.214844 223.644531 146.132812 220.964844 140.273438 C 220.816406 138.277344 220.320312 136.34375 219.507812 134.605469 C 218.65625 125.683594 225.347656 117.375 234.582031 116.398438 C 234.433594 115 234.539062 113.027344 234.476562 112.230469 C 233.480469 100.070312 233.308594 99.90625 233.851562 99.027344 C 234.390625 98.105469 235.546875 97.996094 236.511719 98.039062 C 237.285156 98.09375 237.65625 98.253906 237.777344 99.519531 C 238.207031 105.1875 238.65625 110.835938 239.105469 116.503906 C 246.847656 117.75 252.832031 124.253906 253.304688 132.265625 L 267.84375 132.265625 C 267.585938 119.464844 264.339844 94.9375 264.820312 93.25 L 264.820312 93.230469 C 252.203125 89.59375 235.574219 94.046875 225.703125 101.519531 C 217.246094 107.898438 211.445312 117.640625 211.445312 128.570312 C 211.378906 136.425781 214.214844 145.914062 217.296875 152.855469 C 219.234375 157.710938 221.59375 162.894531 224.78125 166.851562 C 230.871094 174.417969 232.832031 175.710938 241.960938 176.40625 C 244.574219 176.621094 247.191406 176.792969 249.828125 176.878906 C 247.972656 172.242188 247.242188 165.082031 248.949219 160.046875 C 251.03125 153.90625 256.714844 149.632812 262.71875 147.25 C 267.914062 145.199219 267.726562 144.363281 267.84375 136.601562 L 253.023438 136.449219 C 251.523438 144.289062 244.660156 150.214844 236.40625 150.214844 Z M 234.109375 168.894531 L 234.109375 150.191406 C 234.109375 150.191406 237.371094 150.472656 238.570312 150.191406 L 239.234375 171.941406 Z M 295.378906 115.925781 C 291.390625 108.742188 289.347656 106.441406 280.625 101.089844 C 281.375 111.480469 282.148438 121.871094 282.875 132.265625 L 293.769531 132.265625 L 293.769531 136.859375 L 283.199219 136.75 C 283.433594 141.667969 283.199219 146.734375 280.390625 150.664062 C 277.902344 154.121094 273.847656 155.988281 270.222656 158.222656 C 258.433594 165.488281 263.988281 171.21875 262.910156 176.492188 C 271.230469 175.617188 280.136719 172.355469 286.265625 166.316406 C 292.097656 160.5625 295.25 152.640625 297.714844 144.824219 C 301.980469 131.15625 300.933594 125.945312 295.378906 115.925781 Z M 236.019531 121.054688 C 229.285156 121.054688 223.839844 126.507812 223.839844 133.25 C 223.839844 139.972656 229.285156 145.445312 236.019531 145.445312 C 242.753906 145.445312 248.199219 139.972656 248.199219 133.25 C 248.199219 126.507812 242.753906 121.054688 236.019531 121.054688 Z M 236.019531 121.054688 C 229.285156 121.054688 223.839844 126.507812 223.839844 133.25 C 223.839844 139.972656 229.285156 145.445312 236.019531 145.445312 C 242.753906 145.445312 248.199219 139.972656 248.199219 133.25 C 248.199219 126.507812 242.753906 121.054688 236.019531 121.054688 Z M 236.019531 121.054688 C 229.285156 121.054688 223.839844 126.507812 223.839844 133.25 C 223.839844 139.972656 229.285156 145.445312 236.019531 145.445312 C 242.753906 145.445312 248.199219 139.972656 248.199219 133.25 C 248.199219 126.507812 242.753906 121.054688 236.019531 121.054688 Z M 236.019531 121.054688 C 229.285156 121.054688 223.839844 126.507812 223.839844 133.25 C 223.839844 139.972656 229.285156 145.445312 236.019531 145.445312 C 242.753906 145.445312 248.199219 139.972656 248.199219 133.25 C 248.199219 126.507812 242.753906 121.054688 236.019531 121.054688 Z M 236.019531 121.054688 C 229.285156 121.054688 223.839844 126.507812 223.839844 133.25 C 223.839844 139.972656 229.285156 145.445312 236.019531 145.445312 C 242.753906 145.445312 248.199219 139.972656 248.199219 133.25 C 248.199219 126.507812 242.753906 121.054688 236.019531 121.054688 Z M 236.019531 121.054688 " fill-opacity="1" fill-rule="nonzero"/><path fill="#000000" d="M 296.773438 190.042969 C 289.726562 186.308594 281.652344 186.621094 274.554688 190 C 274.40625 190.0625 274.253906 190.148438 274.105469 190.214844 C 272.863281 187.378906 271.640625 184.523438 270.394531 181.6875 L 287.957031 172.585938 C 290.941406 178.382812 293.878906 184.203125 296.773438 190.042969 Z M 296.773438 190.042969 " fill-opacity="1" fill-rule="nonzero"/><path fill="#000000" d="M 318.132812 243.933594 C 318.324219 251.40625 309.167969 251.640625 303.636719 250.847656 C 300.375 250.375 298.210938 247.046875 296.578125 243.265625 C 304.9375 238.378906 312.558594 231.359375 303.226562 228.96875 C 314.914062 223.386719 303.378906 214.949219 295.421875 215.546875 C 302.691406 212.5625 309.167969 202.496094 297.265625 200.476562 C 298.253906 199.253906 299.390625 198.007812 299.96875 196.546875 C 301.382812 199.402344 302.777344 202.257812 304.171875 205.113281 C 309.769531 216.707031 317.789062 230.792969 318.132812 243.933594 Z M 318.132812 243.933594 " fill-opacity="1" fill-rule="nonzero"/><path fill="#000000" d="M 247.664062 247.742188 C 246.984375 247.542969 247.28125 246.511719 247.964844 246.710938 C 257.382812 249.476562 265.46875 255.625 281.652344 255.050781 C 282.347656 255.011719 282.414062 256.097656 281.691406 256.125 C 281.054688 256.144531 257.414062 250.605469 247.664062 247.742188 Z M 247.664062 247.742188 " fill-opacity="1" fill-rule="nonzero"/><path fill="#000000" d="M 287.578125 262.523438 C 288.957031 254.316406 289.152344 246.679688 297.117188 242.324219 C 300.503906 240.417969 307.375 235.449219 306.957031 232.261719 C 306.796875 231.035156 305.496094 230.101562 303.09375 229.488281 C 302.609375 229.363281 302.546875 228.699219 302.996094 228.484375 C 305.480469 227.296875 308.289062 225.289062 307.539062 222.480469 C 306.617188 218.996094 300.394531 215.714844 295.460938 216.082031 C 295.214844 216.113281 294.960938 215.929688 294.898438 215.671875 C 294.839844 215.414062 294.972656 215.152344 295.21875 215.050781 C 299.878906 213.140625 303.652344 208.605469 303.292969 205.355469 C 303.046875 203.148438 300.929688 201.640625 297.175781 201.003906 C 296.988281 200.972656 296.832031 200.84375 296.765625 200.667969 C 296.59375 200.226562 297.035156 199.984375 297.304688 199.582031 C 299.164062 197.320312 299.066406 197.128906 299.519531 196.25 C 300.308594 194.246094 300.011719 192.546875 298.113281 191.449219 C 286.144531 183.503906 268.859375 189.585938 261.664062 202.710938 C 256.460938 217.28125 255.039062 235.117188 250.496094 251.164062 C 250.300781 251.847656 249.269531 251.554688 249.464844 250.871094 C 253.101562 238.027344 257.878906 205.949219 261.109375 201.570312 C 267.355469 190.429688 282.167969 183.46875 294.71875 188.492188 C 295.964844 188.976562 298.273438 190.152344 299.128906 190.847656 C 302.320312 193.066406 300.449219 196.542969 300.460938 196.757812 C 299.960938 198.015625 299.097656 199.085938 298.25 200.117188 C 302.914062 201.144531 304.160156 203.4375 304.359375 205.238281 C 304.75 208.777344 301.433594 212.796875 297.589844 215.0625 C 302.234375 215.574219 307.589844 218.492188 308.578125 222.203125 C 309.054688 223.988281 308.695312 226.527344 304.636719 228.839844 C 306.695312 229.589844 307.832031 230.691406 308.019531 232.121094 C 308.660156 237.003906 297.746094 243.199219 297.636719 243.261719 C 290.183594 247.316406 289.945312 254.773438 288.636719 262.699219 C 288.59375 262.976562 287.460938 263.226562 287.578125 262.523438 Z M 287.578125 262.523438 " fill-opacity="1" fill-rule="nonzero"/><path fill="#000000" d="M 275.546875 205.941406 C 280.972656 200.980469 289.320312 198.679688 297.339844 199.949219 C 298.023438 200.058594 297.898438 201.101562 297.171875 201.011719 C 289.46875 199.792969 281.460938 201.988281 276.273438 206.734375 C 275.75 207.214844 275.023438 206.417969 275.546875 205.941406 Z M 275.546875 205.941406 " fill-opacity="1" fill-rule="nonzero"/><path fill="#000000" d="M 281.152344 219.90625 C 285.09375 216.496094 290.160156 214.738281 295.441406 215.015625 C 296.132812 215.050781 296.105469 216.089844 295.414062 216.089844 C 295.40625 216.089844 295.394531 216.089844 295.386719 216.089844 C 290.339844 215.832031 285.640625 217.441406 281.855469 220.722656 C 281.308594 221.179688 280.625 220.375 281.152344 219.90625 Z M 281.152344 219.90625 " fill-opacity="1" fill-rule="nonzero"/><path fill="#000000" d="M 287.476562 233.859375 C 291.734375 231 298.050781 228.816406 303.195312 228.425781 C 303.476562 228.371094 303.746094 228.625 303.769531 228.921875 C 303.792969 229.214844 303.570312 229.472656 303.273438 229.496094 C 298.304688 229.875 292.195312 231.988281 288.074219 234.753906 C 287.480469 235.144531 286.890625 234.257812 287.476562 233.859375 Z M 287.476562 233.859375 " fill-opacity="1" fill-rule="nonzero"/><path fill="#000000" d="M 288.394531 256.554688 C 290.265625 256.824219 292.253906 257.09375 293.707031 258.304688 C 295.886719 260.117188 294.675781 261.722656 294.128906 263.738281 C 293.234375 267.035156 293.332031 270.3125 291.964844 273.582031 C 289.753906 278.863281 286.871094 279.425781 281.207031 278.640625 C 270.097656 277.101562 258.679688 275.164062 249.199219 269.167969 C 240.726562 263.804688 243.160156 259.328125 244.105469 254.175781 C 244.519531 251.945312 244.894531 248.992188 246.523438 247.285156 C 247.894531 245.851562 250.0625 245.4375 252.023438 245.710938 C 255.949219 246.261719 267.5 253.566406 288.394531 256.554688 Z M 288.394531 256.554688 " fill-opacity="1" fill-rule="nonzero"/><path fill="#000000" d="M 242.265625 257.9375 C 245.605469 248.496094 245.726562 246.632812 247.851562 245.523438 C 249.511719 244.65625 251.457031 245.261719 253.140625 245.972656 C 261.679688 249.574219 269.945312 254.789062 279.09375 256.015625 C 279.777344 256.105469 279.6875 257.144531 278.953125 257.078125 C 272.214844 256.171875 265.980469 253.179688 259.949219 250.289062 C 246.105469 243.640625 248.238281 244.191406 243.28125 258.289062 C 243.058594 258.933594 242.03125 258.625 242.265625 257.9375 Z M 242.265625 257.9375 " fill-opacity="1" fill-rule="nonzero"/><path fill="#000000" d="M 265.621094 95.546875 C 246.953125 93.746094 228.539062 105.746094 223.414062 121.980469 C 218.875 136.238281 220.914062 153.476562 231.757812 164.40625 C 239.210938 172.019531 246.792969 174.175781 248.6875 175.160156 C 248.609375 175.253906 248.046875 175.070312 247.894531 175.050781 C 240.035156 173.972656 232.414062 170.644531 226.003906 165.226562 C 212.671875 153.960938 209.90625 135.742188 214.871094 120.25 C 220.835938 101.546875 243.890625 88.546875 265.621094 95.546875 Z M 265.621094 95.546875 " fill-opacity="1" fill-rule="nonzero"/><path fill="#f6d356" d="M 290.277344 99.164062 C 275.617188 83.738281 253.492188 79.394531 234.140625 87.441406 C 221.378906 92.734375 210.242188 103.203125 205.976562 116.585938 C 200.316406 134.28125 202.847656 155.71875 216.335938 169.335938 C 238.121094 191.332031 274.046875 190.867188 293.714844 165.902344 C 307.867188 147.925781 309.445312 119.34375 290.277344 99.164062 Z M 285.4375 159.890625 C 269.515625 180.074219 240.699219 180.195312 223.199219 162.632812 C 212.355469 151.707031 210.3125 134.480469 214.871094 120.25 C 220.78125 101.671875 243.796875 88.5 265.617188 95.539062 C 265.664062 95.515625 265.6875 95.5625 265.71875 95.546875 C 276.871094 99.082031 285.789062 107.746094 290.273438 117.144531 C 296.816406 130.785156 294.757812 148.035156 285.4375 159.890625 Z M 285.4375 159.890625 " fill-opacity="1" fill-rule="nonzero"/><path fill="#000000" d="M 251.054688 165.550781 C 250.46875 165.515625 250.214844 164.792969 250.652344 164.398438 C 253.164062 162.148438 258.824219 157.121094 258.875 157.417969 C 258.925781 157.742188 259.578125 167.136719 259.589844 167.355469 C 259.625 167.84375 259.917969 168.890625 259.1875 168.984375 C 258.636719 169.054688 258.492188 168.734375 257.050781 167.1875 C 255.941406 165.996094 255.875 165.835938 255.527344 165.816406 Z M 251.054688 165.550781 " fill-opacity="1" fill-rule="nonzero"/><path fill="#000000" d="M 260.40625 155.664062 C 260.839844 154.289062 261.898438 153.164062 263.554688 152.324219 C 264.1875 152.003906 264.671875 152.960938 264.039062 153.28125 C 262.652344 153.988281 261.773438 154.894531 261.429688 155.988281 C 261.214844 156.664062 260.195312 156.34375 260.40625 155.664062 Z M 267.347656 151.609375 C 267.070312 150.542969 269.195312 151.089844 271.5 149.425781 C 272.085938 149.015625 272.695312 149.882812 272.128906 150.296875 C 270.875 151.199219 269.402344 151.628906 268 151.996094 C 267.6875 152.066406 267.417969 151.878906 267.347656 151.609375 Z M 273.730469 146.246094 C 274.097656 145.132812 274.277344 143.800781 274.289062 142.171875 C 274.296875 141.484375 275.367188 141.457031 275.363281 142.183594 C 275.351562 143.921875 275.148438 145.359375 274.75 146.582031 C 274.53125 147.253906 273.507812 146.921875 273.730469 146.246094 Z M 274.058594 137.933594 L 273.71875 133.652344 C 273.664062 132.988281 274.726562 132.792969 274.785156 133.566406 L 275.128906 137.84375 C 275.1875 138.554688 274.117188 138.648438 274.058594 137.933594 Z M 273.371094 129.371094 L 273.027344 125.089844 C 272.972656 124.386719 274.046875 124.292969 274.097656 125.007812 L 274.441406 129.285156 C 274.5 129.996094 273.429688 130.085938 273.371094 129.371094 Z M 272.683594 120.8125 L 272.339844 116.53125 C 272.285156 115.859375 273.347656 115.683594 273.40625 116.449219 L 273.75 120.726562 C 273.808594 121.410156 272.738281 121.515625 272.683594 120.8125 Z M 271.992188 112.253906 L 271.648438 107.972656 C 271.59375 107.257812 272.667969 107.1875 272.71875 107.886719 L 273.0625 112.164062 C 273.121094 112.875 272.050781 112.964844 271.992188 112.253906 Z M 271.304688 103.691406 L 271.171875 102.027344 C 271.109375 101.324219 272.175781 101.226562 272.238281 101.9375 L 272.371094 103.605469 C 272.429688 104.316406 271.359375 104.402344 271.304688 103.691406 Z M 271.304688 103.691406 " fill-opacity="1" fill-rule="nonzero"/><path fill="#000000" d="M 141.464844 234.445312 C 151.492188 235.179688 154.863281 235.796875 173.539062 230.390625 C 180.082031 228.496094 186.9375 226.414062 191.6875 221.527344 C 193.414062 219.75 196.445312 216.070312 199.375 217.847656 C 201.78125 219.304688 200.765625 224.144531 200.582031 226.773438 C 200.449219 228.714844 200.25 230.734375 199.167969 232.34375 C 197.210938 235.246094 192.285156 237.058594 189.117188 238.429688 C 164.457031 249.121094 114.519531 248.246094 93.6875 236.488281 C 91.34375 235.164062 88.628906 233.429688 87.226562 231.070312 C 85.035156 227.382812 84.804688 222.628906 85.792969 218.53125 C 87.394531 211.886719 90.671875 218.25 92.636719 221.195312 C 94.414062 223.855469 97.515625 225.253906 100.480469 226.445312 C 105.25 228.359375 110.09375 230.09375 114.992188 231.640625 C 128.539062 235.917969 129.238281 233.554688 141.464844 234.445312 Z M 141.464844 234.445312 " fill-opacity="1" fill-rule="nonzero"/><path fill="#000000" d="M 116.699219 207.921875 C 129.703125 204.1875 136.558594 204.097656 150.9375 204.425781 C 159.539062 204.621094 162.058594 204.980469 171.773438 208.601562 C 186.402344 214.050781 185.691406 217.59375 187.742188 218.648438 C 188.980469 219.28125 190.542969 218.5 191.320312 217.347656 C 192.445312 215.691406 192.394531 213.433594 191.589844 211.597656 C 190.789062 209.765625 189.332031 208.292969 187.773438 207.039062 C 182.535156 202.824219 175.882812 200.652344 169.210938 199.875 C 166.414062 199.546875 163.597656 199.453125 160.789062 199.355469 C 138.636719 198.59375 122.839844 196.652344 102.90625 207.179688 C 100.828125 208.277344 98.765625 209.507812 97.222656 211.277344 C 95.75 212.960938 94.660156 215.40625 95.109375 217.675781 C 95.375 219.023438 97.210938 222.203125 99.011719 220.546875 C 99.613281 219.992188 99.777344 219.128906 100.019531 218.347656 C 100.875 215.597656 103.011719 213.386719 105.476562 211.898438 C 108.914062 209.820312 112.882812 209.015625 116.699219 207.921875 Z M 116.699219 207.921875 " fill-opacity="1" fill-rule="nonzero"/><path fill="#5fff9f" d="M 143.417969 197.238281 C 111.574219 197.238281 85.78125 205.804688 85.78125 216.355469 C 85.78125 226.902344 111.574219 235.46875 143.417969 235.46875 C 175.238281 235.46875 201.035156 226.902344 201.035156 216.355469 C 201.035156 205.804688 175.238281 197.238281 143.417969 197.238281 Z M 143.039062 230.785156 C 117.941406 230.785156 97.605469 224.054688 97.605469 215.722656 C 97.605469 207.386719 117.941406 200.65625 143.039062 200.65625 C 168.136719 200.65625 188.496094 207.386719 188.496094 215.722656 C 188.496094 224.054688 168.136719 230.785156 143.039062 230.785156 Z M 143.039062 230.785156 " fill-opacity="1" fill-rule="nonzero"/><path fill="#2c56fe" d="M 142.261719 214.320312 C 142.53125 213.890625 149.941406 206.632812 149.941406 206.632812 L 148.941406 215.722656 " fill-opacity="1" fill-rule="nonzero"/><path fill="#2c56fe" d="M 140.21875 218.136719 C 139.960938 218.429688 135.660156 227.390625 135.660156 227.390625 L 147.578125 218.546875 " fill-opacity="1" fill-rule="nonzero"/><path fill="#000000" d="M 155.394531 217.332031 C 155.394531 217.527344 155.320312 217.71875 155.164062 217.910156 C 155.011719 218.101562 154.785156 218.285156 154.484375 218.464844 C 154.183594 218.648438 153.816406 218.820312 153.378906 218.984375 C 152.941406 219.148438 152.441406 219.300781 151.886719 219.441406 C 151.328125 219.582031 150.71875 219.707031 150.066406 219.820312 C 149.410156 219.929688 148.714844 220.027344 147.988281 220.105469 C 147.257812 220.183594 146.507812 220.246094 145.730469 220.289062 C 144.957031 220.332031 144.175781 220.355469 143.386719 220.363281 C 142.597656 220.367188 141.8125 220.355469 141.039062 220.324219 C 140.265625 220.292969 139.511719 220.242188 138.78125 220.171875 C 138.050781 220.105469 137.355469 220.019531 136.699219 219.917969 C 136.042969 219.8125 135.433594 219.695312 134.875 219.5625 C 134.316406 219.429688 133.816406 219.285156 133.375 219.128906 C 132.933594 218.972656 132.5625 218.804688 132.261719 218.628906 C 131.957031 218.453125 131.726562 218.269531 131.570312 218.082031 C 131.417969 217.894531 131.335938 217.703125 131.335938 217.507812 C 131.335938 217.316406 131.410156 217.125 131.5625 216.933594 C 131.714844 216.742188 131.941406 216.558594 132.242188 216.378906 C 132.542969 216.195312 132.914062 216.023438 133.351562 215.859375 C 133.789062 215.695312 134.285156 215.542969 134.84375 215.402344 C 135.402344 215.261719 136.007812 215.136719 136.664062 215.023438 C 137.320312 214.914062 138.011719 214.816406 138.742188 214.738281 C 139.472656 214.660156 140.222656 214.597656 140.996094 214.554688 C 141.769531 214.511719 142.554688 214.484375 143.34375 214.480469 C 144.132812 214.472656 144.914062 214.488281 145.691406 214.519531 C 146.464844 214.550781 147.21875 214.601562 147.949219 214.671875 C 148.679688 214.738281 149.371094 214.824219 150.027344 214.925781 C 150.6875 215.03125 151.296875 215.148438 151.855469 215.28125 C 152.414062 215.414062 152.914062 215.558594 153.355469 215.714844 C 153.792969 215.871094 154.164062 216.039062 154.46875 216.214844 C 154.773438 216.390625 155 216.574219 155.15625 216.761719 C 155.3125 216.949219 155.390625 217.140625 155.394531 217.332031 Z M 155.394531 217.332031 " fill-opacity="1" fill-rule="nonzero"/><path fill="#000000" d="M 130.847656 217.167969 C 132.066406 212.679688 157.191406 212.894531 155.882812 217.675781 C 154.679688 222.097656 129.53125 222.015625 130.847656 217.167969 Z M 143.667969 215.015625 C 136.761719 215.015625 132.164062 216.414062 131.882812 217.449219 C 131.871094 217.488281 131.851562 217.5625 131.960938 217.710938 C 132.703125 218.695312 136.675781 219.769531 142.570312 219.828125 C 149.761719 219.90625 154.5625 218.457031 154.847656 217.394531 C 154.859375 217.355469 154.878906 217.277344 154.769531 217.128906 C 154.027344 216.148438 150.054688 215.074219 144.160156 215.019531 C 143.996094 215.015625 143.832031 215.015625 143.667969 215.015625 Z M 143.667969 215.015625 " fill-opacity="1" fill-rule="nonzero"/><path fill="#000000" d="M 177.421875 219.4375 C 176.722656 219.4375 176.703125 218.390625 177.402344 218.363281 C 177.871094 218.347656 175.710938 218.421875 181.96875 218.210938 C 182.664062 218.210938 182.683594 219.261719 181.984375 219.285156 L 177.4375 219.4375 C 177.433594 219.4375 177.425781 219.4375 177.421875 219.4375 Z M 177.421875 219.4375 " fill-opacity="1" fill-rule="nonzero"/><path fill="#000000" d="M 107.675781 217.894531 C 107.105469 217.863281 105.660156 217.855469 103.304688 217.53125 C 102.636719 217.433594 102.703125 216.414062 103.449219 216.464844 C 104.84375 216.65625 106.269531 216.777344 107.691406 216.820312 C 108.386719 216.839844 108.378906 217.894531 107.675781 217.894531 Z M 107.675781 217.894531 " fill-opacity="1" fill-rule="nonzero"/><path fill="#000000" d="M 188.144531 269.984375 C 181.550781 275.398438 170.472656 269.339844 163.511719 264.855469 C 159.222656 262.09375 155.972656 258.90625 153.847656 255.382812 C 153.480469 254.769531 154.402344 254.226562 154.765625 254.828125 C 156.804688 258.210938 159.941406 261.277344 164.09375 263.953125 C 170.480469 268.066406 181.011719 273.902344 187.121094 269.410156 C 180.519531 265.359375 184.03125 259.261719 187.410156 259.632812 C 190.832031 259.976562 192.714844 265.226562 188.980469 269.199219 C 199.847656 274.582031 215.300781 272.898438 225.316406 264 C 225.84375 263.519531 226.558594 264.332031 226.027344 264.800781 C 215.582031 274.085938 199.425781 275.761719 188.144531 269.984375 Z M 187.988281 268.671875 C 191.25 265.488281 190.003906 260.972656 187.304688 260.703125 C 184.976562 260.421875 181.972656 265.195312 187.988281 268.671875 Z M 187.988281 268.671875 " fill-opacity="1" fill-rule="nonzero"/><g clip-path="url(#4017f4df08)"><g clip-path="url(#8007b5204e)"><g clip-path="url(#4c40d177b5)"><path fill="#ffffff" d="M 246.996094 105.011719 C 244.171875 105.273438 242.09375 107.777344 242.355469 110.601562 C 242.617188 113.425781 245.121094 115.503906 247.945312 115.238281 C 250.769531 114.976562 252.847656 112.472656 252.585938 109.652344 C 252.324219 106.828125 249.820312 104.75 246.996094 105.011719 Z M 250.324219 115.703125 C 249.632812 116.0625 248.859375 116.296875 248.035156 116.371094 C 244.585938 116.691406 241.535156 114.15625 241.214844 110.707031 C 240.894531 107.261719 243.425781 104.207031 246.875 103.886719 C 247.699219 103.808594 248.5 103.894531 249.246094 104.117188 C 249.75 104.269531 250.230469 104.480469 250.675781 104.746094 L 260.207031 108.945312 L 251.613281 114.824219 C 251.222656 115.167969 250.792969 115.464844 250.324219 115.703125 " fill-opacity="1" fill-rule="nonzero"/></g></g></g><g clip-path="url(#80c1f87862)"><g clip-path="url(#10db15256f)"><g clip-path="url(#e47b5fe9fa)"><path fill="#ffffff" d="M 255.457031 103.027344 L 255.730469 105.964844 L 262.09375 108.769531 L 256.355469 112.695312 L 256.628906 115.632812 L 263.707031 118.675781 L 261.855469 98.734375 L 255.457031 103.027344 " fill-opacity="1" fill-rule="nonzero"/></g></g></g><g clip-path="url(#8188f3314d)"><g clip-path="url(#6b4f1d005b)"><g clip-path="url(#a48234a3b6)"><path fill="#ffffff" d="M 246.417969 107.808594 L 250.101562 107.464844 L 250.546875 112.257812 L 246.863281 112.597656 L 246.921875 113.214844 C 246.960938 113.632812 246.75 113.730469 246.453125 113.433594 L 244.089844 111.035156 C 243.796875 110.734375 243.746094 110.203125 243.980469 109.855469 L 245.863281 107.0625 C 246.097656 106.714844 246.324219 106.773438 246.363281 107.191406 Z M 249.585938 108.902344 L 246.988281 109.144531 L 247.175781 111.183594 L 249.773438 110.941406 L 249.585938 108.902344 " fill-opacity="1" fill-rule="nonzero"/></g></g></g></svg>