<svg xmlns="http://www.w3.org/2000/svg" xmlns:xlink="http://www.w3.org/1999/xlink" width="567" zoomAndPan="magnify" viewBox="0 0 425.25 283.500005" height="378" preserveAspectRatio="xMidYMid meet" version="1.0"><defs><clipPath id="1c9447f081"><path d="M 185 7.285156 L 266 7.285156 L 266 39 L 185 39 Z M 185 7.285156 " clip-rule="nonzero"/></clipPath><clipPath id="481913d954"><path d="M 95 152 L 344.792969 152 L 344.792969 277 L 95 277 Z M 95 152 " clip-rule="nonzero"/></clipPath></defs><path fill="#000000" d="M 180.949219 49.507812 C 181.863281 56.144531 185.78125 60.847656 189.121094 62.183594 C 189.632812 69.183594 191.570312 76.398438 195.671875 82.230469 C 190.871094 83.242188 186.785156 85.515625 184.953125 90.652344 C 178.730469 108.238281 187.050781 124.746094 196.050781 140.957031 C 190.449219 143.679688 184.800781 144.683594 178.757812 145.507812 C 173.367188 146.242188 169.027344 147.335938 163.617188 145.402344 C 158.316406 143.554688 156.128906 140.472656 154.179688 135.210938 C 152.683594 131.207031 151.671875 126.851562 152.472656 122.636719 C 153.273438 118.425781 156.242188 114.425781 160.433594 113.480469 C 161.914062 113.132812 162.609375 112.769531 162.078125 111.351562 C 158.652344 101.386719 145.929688 84.953125 169.34375 75.957031 C 164.910156 68.199219 163.71875 58.8125 169.996094 52.835938 C 171.894531 51.023438 174.210938 50.75 174.84375 48.117188 C 175.539062 45.171875 174.671875 41.800781 175.496094 38.707031 C 177.980469 29.175781 186.535156 23.066406 194.851562 17.820312 C 195.460938 17.441406 196.09375 17.144531 196.746094 16.914062 C 195.1875 18.132812 193.691406 19.460938 192.40625 20.976562 C 189.199219 24.746094 186.917969 30.136719 185.710938 34.917969 C 182.128906 37.757812 180.128906 43.382812 180.949219 49.507812 Z M 180.949219 49.507812 " fill-opacity="1" fill-rule="nonzero"/><path fill="#000000" d="M 189.121094 62.183594 C 189.25 63.910156 189.460938 65.636719 189.773438 67.34375 C 189.1875 65.492188 188.722656 63.597656 188.195312 61.699219 C 188.492188 61.890625 188.804688 62.058594 189.121094 62.183594 Z M 189.121094 62.183594 " fill-opacity="1" fill-rule="nonzero"/><g clip-path="url(#1c9447f081)"><path fill="#000000" d="M 265.402344 38.058594 C 264.914062 28.484375 258.203125 16.234375 249.488281 14.070312 C 246.117188 13.25 242.15625 14.113281 240.007812 16.851562 C 235.417969 10.808594 227.835938 7.269531 220.273438 7.3125 C 211.910156 7.332031 204.097656 11.394531 197.484375 16.34375 C 197.230469 16.535156 197 16.703125 196.769531 16.914062 C 196.746094 16.914062 196.746094 16.914062 196.746094 16.914062 C 195.1875 18.132812 193.691406 19.460938 192.40625 20.976562 C 189.199219 24.746094 186.917969 30.136719 185.710938 34.917969 C 189.042969 32.207031 193.339844 32.367188 196.832031 34.957031 C 200.488281 31.300781 203.640625 30.058594 207.742188 28.726562 C 207.71875 28.726562 207.699219 28.703125 207.699219 28.683594 C 205.234375 24.28125 201.378906 20.640625 196.832031 18.410156 C 196.21875 18.101562 196.683594 17.175781 197.292969 17.480469 C 204.617188 21.058594 208.667969 27.761719 208.667969 28.429688 C 216.945312 25.882812 225.945312 24.683594 229.121094 24.683594 C 237.078125 26.921875 244.617188 31.820312 250.808594 38.058594 Z M 228.972656 24.28125 C 228.863281 24.941406 227.832031 24.789062 227.941406 24.09375 C 228.847656 19.273438 227.328125 14.089844 223.9375 10.554688 C 223.464844 10.027344 224.242188 9.332031 224.695312 9.839844 C 228.320312 13.605469 229.941406 19.144531 228.972656 24.28125 Z M 228.972656 24.28125 " fill-opacity="1" fill-rule="nonzero"/></g><path fill="#f6d356" d="M 305.007812 124.722656 C 300.964844 115.351562 295.488281 106.425781 288.683594 98.78125 C 284.1875 102.1875 273.515625 105.210938 268.949219 105.8125 C 265.683594 106.257812 263.492188 105.625 260.480469 104.402344 C 259.09375 103.855469 257.617188 103.601562 256.183594 103.203125 C 249.949219 101.457031 244.832031 96.613281 241.484375 91.074219 C 239.265625 92.230469 238.410156 91.945312 236.976562 92.273438 C 234.621094 92.847656 228.386719 96.089844 218.105469 94.652344 C 213.625 94.058594 210.59375 93.75 206.921875 92.023438 C 202.371094 89.726562 198.539062 86.335938 195.671875 82.230469 C 190.871094 83.242188 186.785156 85.515625 184.953125 90.652344 C 177.101562 112.84375 192.304688 133.746094 205.59375 158.078125 C 207.386719 161.371094 209.640625 165.003906 213.28125 165.824219 C 215.96875 166.445312 231.394531 164.347656 238.386719 164.183594 C 235.101562 162.453125 235.222656 157.816406 237.777344 156.875 C 236.28125 157.296875 234.742188 157.699219 233.207031 157.550781 C 229.074219 157.097656 227.097656 152.921875 232.59375 148.390625 C 238.449219 143.546875 245.402344 140.03125 252.773438 138.15625 C 252.773438 138.113281 252.773438 138.09375 252.792969 138.074219 C 243.480469 139.527344 235.953125 141.007812 229.183594 139.421875 C 228.234375 139.1875 227.246094 138.875 226.613281 138.136719 C 225.707031 137.082031 225.792969 135.441406 226.488281 134.242188 C 227.183594 133.019531 228.339844 132.175781 229.519531 131.441406 C 236.089844 127.269531 243.90625 125.292969 251.679688 124.871094 C 252.6875 124.808594 253.699219 124.785156 254.710938 124.808594 C 255.511719 118.53125 256.375 112.277344 257.300781 106.046875 L 272.257812 106.046875 C 270.90625 113.730469 269.558594 121.394531 268.210938 129.082031 C 275.042969 134.40625 280.214844 144.050781 282.617188 152.601562 C 283.714844 156.476562 284.304688 160.308594 284.304688 163.71875 C 284.304688 169.261719 282.703125 173.734375 281.332031 175.449219 C 279.542969 178.3125 276.679688 180.585938 273.414062 181.324219 C 273.816406 183.027344 274.507812 184.480469 275.6875 185.21875 C 277.964844 186.652344 283.566406 186.25 286.15625 185.976562 C 292.980469 185.261719 299.46875 181.722656 303.765625 176.355469 C 308.421875 170.542969 310.527344 163.171875 310.925781 155.464844 C 311.515625 144.8125 308.800781 133.503906 305.007812 124.722656 Z M 305.007812 124.722656 " fill-opacity="1" fill-rule="nonzero"/><path fill="#000000" d="M 215.730469 95.636719 C 199.320312 93.097656 188.691406 78.960938 187.984375 61.890625 C 187.957031 61.207031 189.007812 61.128906 189.039062 61.847656 C 189.789062 80.125 201.476562 92.363281 215.890625 94.597656 C 220.621094 95.320312 225.074219 94.566406 229.792969 93.769531 C 233.125 93.210938 234.414062 93.058594 238.007812 91.65625 C 238.65625 91.40625 239.039062 92.386719 238.390625 92.636719 C 234.5 94.15625 232.898438 94.308594 229.96875 94.804688 C 225.117188 95.628906 220.601562 96.390625 215.730469 95.636719 Z M 215.730469 95.636719 " fill-opacity="1" fill-rule="nonzero"/><path fill="#000000" d="M 180.429688 49.582031 C 178.726562 36.875 188.546875 28.152344 197.144531 34.535156 C 203.570312 39.253906 205.910156 50.277344 201.769531 57.8125 C 199.976562 61.078125 197.265625 63.105469 194.144531 63.527344 C 187.273438 64.46875 181.515625 57.480469 180.429688 49.582031 Z M 191.117188 33.472656 C 184.234375 33.472656 180.449219 41.789062 181.472656 49.4375 C 183.230469 62.214844 195.402344 67.214844 200.847656 57.304688 C 206.085938 47.769531 200.042969 33.472656 191.117188 33.472656 Z M 191.117188 33.472656 " fill-opacity="1" fill-rule="nonzero"/><path fill="#000000" d="M 201.957031 41.3125 C 204.601562 38.054688 208.921875 38.230469 210.011719 40.292969 C 210.339844 40.910156 209.402344 41.394531 209.078125 40.78125 C 208.730469 40.121094 207.992188 39.921875 207.433594 39.875 C 205.707031 39.738281 203.964844 40.511719 202.777344 41.976562 C 202.335938 42.519531 201.519531 41.851562 201.957031 41.3125 Z M 201.957031 41.3125 " fill-opacity="1" fill-rule="nonzero"/><path fill="#000000" d="M 213.671875 63.808594 C 211.894531 63.34375 210.460938 63.457031 208.679688 62.355469 C 205.851562 60.621094 206.277344 57.746094 206.195312 54.605469 C 205.804688 39.675781 205.214844 38.9375 206.1875 38.910156 C 206.191406 38.910156 206.195312 38.910156 206.199219 38.910156 C 206.484375 38.910156 206.71875 39.136719 206.726562 39.421875 C 206.894531 45.800781 207.253906 52.125 207.261719 55.878906 C 207.265625 58.324219 207.269531 60.257812 209.230469 61.460938 C 210.796875 62.429688 212.117188 62.316406 213.941406 62.792969 C 214.609375 62.964844 214.347656 63.992188 213.671875 63.808594 Z M 213.671875 63.808594 " fill-opacity="1" fill-rule="nonzero"/><path fill="#000000" d="M 192.886719 54.527344 C 193.5 59.054688 195.761719 62.480469 197.9375 62.1875 C 200.117188 61.894531 201.386719 57.988281 200.777344 53.460938 C 200.164062 48.933594 197.902344 45.507812 195.726562 45.800781 C 193.546875 46.09375 192.277344 50 192.886719 54.527344 " fill-opacity="1" fill-rule="nonzero"/><path fill="#000000" d="M 208.859375 47.617188 C 207.703125 39.058594 211.96875 31.394531 218.363281 30.53125 C 228.675781 29.132812 236.0625 45.15625 230.191406 55.84375 C 224.1875 66.785156 210.699219 61.246094 208.859375 47.617188 Z M 209.902344 47.472656 C 211.625 60.214844 223.816406 65.269531 229.269531 55.339844 C 234.757812 45.335938 227.863281 30.324219 218.507812 31.574219 C 212.683594 32.359375 208.824219 39.496094 209.902344 47.472656 Z M 209.902344 47.472656 " fill-opacity="1" fill-rule="nonzero"/><path fill="#000000" d="M 213.691406 52.265625 C 214.304688 56.792969 216.566406 60.21875 218.742188 59.925781 C 220.921875 59.632812 222.191406 55.726562 221.582031 51.199219 C 220.96875 46.671875 218.707031 43.246094 216.527344 43.539062 C 214.351562 43.832031 213.082031 47.738281 213.691406 52.265625 " fill-opacity="1" fill-rule="nonzero"/><g clip-path="url(#481913d954)"><path fill="#2c56fe" d="M 344.375 264.496094 L 339.78125 228.425781 L 331.144531 160.625 C 330.894531 158.75 329.417969 157.296875 327.542969 157.128906 L 310.925781 155.464844 L 310.1875 155.382812 L 282.617188 152.601562 C 287.734375 170.703125 280.292969 180.757812 272.109375 181.535156 C 268.167969 181.871094 263.957031 179.535156 262.757812 175.785156 C 262.355469 174.640625 262.117188 174.113281 260.480469 174.417969 C 255.195312 175.238281 249.339844 175.847656 244.875 172.902344 C 240.433594 170.011719 242.03125 165.832031 244.515625 165.636719 C 242.011719 165.460938 239.109375 165.113281 237.25 163.363281 C 235.984375 162.160156 235.566406 160.078125 236.15625 158.539062 L 215.472656 164.160156 C 214.441406 164.421875 218.003906 164.558594 157.003906 160.476562 C 155.484375 160.394531 154.011719 161.171875 153.253906 162.5 C 79.800781 290.226562 99.203125 256.488281 95.859375 262.308594 C 94.40625 264.832031 96.003906 268.011719 98.890625 268.328125 L 174.1875 276.816406 C 174.546875 276.855469 174.882812 276.835938 175.199219 276.792969 C 175.390625 276.75 175.558594 276.730469 175.746094 276.6875 L 251.320312 255.402344 C 251.613281 255.316406 251.929688 255.273438 252.246094 255.253906 C 252.519531 255.253906 252.773438 255.253906 253.027344 255.296875 L 293.738281 261.71875 L 339.761719 268.980469 C 342.414062 269.402344 344.710938 267.148438 344.375 264.496094 Z M 168.417969 226.785156 C 163.804688 230.976562 158.980469 234.953125 153.949219 238.703125 C 160.585938 251.589844 163.5625 252.9375 162.457031 253.671875 C 162.273438 253.8125 161.878906 253.789062 161.742188 253.546875 C 158.519531 249.019531 155.632812 244.261719 153.085938 239.335938 C 148.933594 242.386719 144.660156 245.25 140.300781 247.945312 C 140.214844 248.007812 140.109375 248.03125 140.027344 248.03125 C 139.472656 248.03125 139.292969 247.332031 139.753906 247.0625 C 144.132812 244.34375 148.429688 241.460938 152.578125 238.386719 C 150.808594 234.890625 149.1875 231.332031 147.753906 227.691406 C 147.511719 227.054688 148.449219 226.664062 148.746094 227.3125 C 150.136719 230.871094 151.714844 234.363281 153.441406 237.753906 C 167.28125 227.453125 167.625 225.101562 168.460938 226.027344 C 168.648438 226.257812 168.648438 226.574219 168.417969 226.785156 Z M 168.417969 226.785156 " fill-opacity="1" fill-rule="nonzero"/></g><path fill="#000000" d="M 175.253906 276.503906 L 212.519531 172.460938 C 212.753906 171.8125 213.746094 172.15625 213.511719 172.816406 L 176.242188 276.859375 C 176.007812 277.511719 175.015625 277.164062 175.253906 276.503906 Z M 175.253906 276.503906 " fill-opacity="1" fill-rule="nonzero"/><path fill="#b0d8ff" d="M 291.675781 216.53125 C 295.890625 217.65625 300.339844 216.792969 304.699219 216.640625 C 309.058594 216.488281 313.933594 217.332031 316.558594 220.816406 C 318.738281 223.703125 318.769531 227.800781 317.425781 231.160156 C 316.078125 234.519531 313.554688 237.261719 310.890625 239.710938 C 307.179688 243.128906 302.902344 246.230469 297.941406 247.148438 C 292.4375 248.164062 286.792969 246.359375 281.773438 243.890625 C 278.78125 242.421875 275.863281 240.6875 272.625 239.890625 C 269.386719 239.09375 265.648438 239.398438 263.171875 241.632812 C 256.238281 247.886719 246.703125 245.992188 242.996094 240.222656 C 237.503906 231.660156 247.753906 223.277344 253.394531 218.15625 C 274.894531 198.652344 281.3125 213.757812 291.675781 216.53125 Z M 291.675781 216.53125 " fill-opacity="1" fill-rule="nonzero"/><path fill="#000000" d="M 252.503906 255.238281 L 261.054688 174.320312 C 261.125 173.613281 262.175781 173.746094 262.101562 174.429688 L 253.550781 255.351562 C 253.476562 256.050781 252.429688 255.929688 252.503906 255.238281 Z M 252.503906 255.238281 " fill-opacity="1" fill-rule="nonzero"/><path fill="#000000" d="M 278.847656 234.164062 C 278.464844 230.21875 281.707031 227.289062 284.90625 228.210938 C 287.746094 229.027344 288.808594 232.425781 291.171875 233.460938 C 291.453125 232.640625 291.410156 231.554688 291.703125 230.613281 C 292.269531 228.800781 294.203125 227.527344 296.082031 227.679688 C 298.644531 227.90625 300.269531 230.300781 302.445312 230.925781 C 303.113281 231.117188 302.824219 232.128906 302.152344 231.9375 C 299.894531 231.285156 298.085938 228.914062 295.988281 228.730469 C 294.578125 228.613281 293.132812 229.570312 292.710938 230.925781 C 292.226562 232.46875 292.757812 237.785156 287.65625 231.726562 C 286.730469 230.621094 285.851562 229.578125 284.613281 229.222656 C 282.171875 228.511719 279.578125 230.804688 279.894531 234.058594 C 279.960938 234.757812 278.914062 234.859375 278.847656 234.164062 Z M 278.847656 234.164062 " fill-opacity="1" fill-rule="nonzero"/><path fill="#2c56fe" d="M 168.902344 120.117188 C 172.238281 116.925781 173.949219 116.152344 179.257812 116.644531 C 189.140625 117.566406 198.8125 120.023438 208.429688 122.46875 C 209.910156 122.847656 210.269531 123.390625 209.824219 124.894531 C 208.457031 129.535156 206.96875 134.140625 205.359375 138.703125 C 204.074219 142.347656 203.167969 143.066406 200.015625 144.046875 C 191.277344 146.761719 188.125 147.179688 179.304688 144.980469 C 175.246094 143.96875 171.230469 142.785156 167.269531 141.4375 C 164.28125 140.421875 160.027344 139.351562 158.382812 136.328125 C 155.46875 130.96875 165.574219 123.300781 168.902344 120.117188 Z M 168.902344 120.117188 " fill-opacity="1" fill-rule="nonzero"/><path fill="#000000" d="M 166.050781 141.589844 C 163.121094 140.632812 159.476562 139.441406 157.921875 136.582031 C 154.867188 130.960938 164.414062 123.679688 168.539062 119.738281 C 171.980469 116.445312 173.820312 115.613281 179.304688 116.121094 C 189.25 117.050781 199.066406 119.546875 208.558594 121.960938 C 210.292969 122.398438 210.875 123.210938 210.332031 125.046875 C 208.96875 129.671875 207.464844 134.324219 205.859375 138.878906 C 204.515625 142.691406 203.472656 143.523438 200.171875 144.550781 C 189.339844 147.917969 186.386719 148.269531 166.050781 141.589844 Z M 169.265625 120.496094 C 165.597656 124.003906 156.179688 131.171875 158.847656 136.078125 C 160.203125 138.574219 163.625 139.691406 166.375 140.589844 C 186.0625 147.039062 188.976562 146.925781 199.859375 143.542969 C 202.832031 142.621094 203.628906 142.035156 204.863281 138.527344 C 206.464844 133.992188 207.964844 129.355469 209.320312 124.746094 C 209.667969 123.570312 209.519531 123.289062 208.300781 122.980469 C 198.847656 120.574219 189.070312 118.089844 179.207031 117.171875 C 174 116.6875 172.449219 117.449219 169.265625 120.496094 Z M 168.902344 120.117188 L 168.914062 120.117188 Z M 168.902344 120.117188 " fill-opacity="1" fill-rule="nonzero"/><path fill="#2c56fe" d="M 196.949219 168.792969 C 196.511719 169.132812 195.734375 168.996094 195.425781 168.523438 C 195.113281 168.042969 195.277344 167.078125 195.265625 166.523438 C 195.167969 161.625 195.140625 156.722656 195.117188 151.824219 C 195.074219 143.304688 195.566406 139.902344 200.570312 132.519531 C 202.933594 129.035156 205.675781 125.8125 208.746094 122.933594 C 209.628906 122.105469 210.3125 122.15625 210.65625 123.289062 C 211.269531 125.3125 211.308594 127.457031 211.34375 129.570312 C 211.550781 141.78125 211.753906 154.027344 210.550781 166.183594 " fill-opacity="1" fill-rule="nonzero"/><path fill="#000000" d="M 194.984375 168.808594 C 194.710938 168.390625 194.683594 169.367188 194.589844 151.828125 C 194.546875 143.3125 195.015625 139.777344 200.136719 132.226562 C 202.523438 128.703125 205.296875 125.445312 208.386719 122.546875 C 209.640625 121.371094 210.734375 121.722656 211.160156 123.136719 C 211.796875 125.242188 211.835938 127.4375 211.871094 129.5625 C 212.074219 141.59375 212.285156 154.035156 211.078125 166.234375 C 211.007812 166.925781 209.960938 166.828125 210.027344 166.132812 C 211.230469 153.992188 211.019531 141.582031 210.816406 129.582031 C 210.78125 127.527344 210.746094 125.40625 210.152344 123.441406 C 209.957031 122.796875 209.789062 122.675781 209.105469 123.316406 C 206.074219 126.160156 203.351562 129.355469 201.007812 132.816406 C 196.066406 140.101562 195.601562 143.402344 195.644531 151.820312 C 195.644531 152.046875 195.71875 168.011719 195.867188 168.234375 C 196.007812 168.449219 196.433594 168.527344 196.625 168.375 C 196.855469 168.195312 197.1875 168.238281 197.367188 168.46875 C 198.046875 169.339844 195.835938 170.113281 194.984375 168.808594 Z M 194.984375 168.808594 " fill-opacity="1" fill-rule="nonzero"/><path fill="#2c56fe" d="M 165.480469 175.945312 C 162.140625 163.390625 159.695312 150.59375 158.167969 137.667969 C 158.035156 136.515625 157.074219 134.28125 158.550781 133.734375 C 159.496094 133.382812 160.84375 133.714844 161.847656 133.671875 C 171.976562 133.238281 182.128906 135.449219 191.992188 137.617188 C 195.484375 138.386719 196.730469 139.335938 197.085938 144.003906 C 197.882812 154.511719 198.328125 165.042969 198.425781 175.582031 " fill-opacity="1" fill-rule="nonzero"/><path fill="#000000" d="M 164.972656 176.082031 C 159.0625 153.890625 157.992188 139.136719 157.484375 136.902344 C 157.203125 135.675781 156.785156 133.828125 158.371094 133.238281 C 159.480469 132.820312 160.917969 133.203125 161.824219 133.144531 C 172.054688 132.71875 182.136719 134.910156 192.105469 137.105469 C 195.839844 137.925781 197.238281 139.074219 197.609375 143.960938 C 198.402344 154.425781 198.855469 165.0625 198.953125 175.578125 C 198.960938 176.273438 197.90625 176.289062 197.898438 175.585938 C 197.800781 165.097656 197.351562 154.484375 196.558594 144.042969 C 196.226562 139.640625 195.175781 138.859375 191.878906 138.132812 C 167.296875 132.722656 165.367188 134.527344 160.660156 134.148438 C 159.960938 134.09375 159.242188 134.035156 158.738281 134.226562 C 157.777344 134.582031 158.570312 136.542969 158.691406 137.605469 C 160.199219 150.421875 162.652344 163.277344 165.992188 175.808594 C 166.171875 176.484375 165.152344 176.753906 164.972656 176.082031 Z M 164.972656 176.082031 " fill-opacity="1" fill-rule="nonzero"/><path fill="#000000" d="M 259.0625 224.972656 C 258.464844 219.5 262.796875 214.847656 266.722656 219.53125 C 267.230469 220.144531 267.8125 220.929688 268.515625 221.023438 C 270.050781 221.191406 270.84375 218.828125 272.421875 218.007812 C 273.398438 217.503906 274.699219 217.53125 275.890625 218.089844 C 276.917969 218.566406 277.769531 219.339844 278.519531 220.027344 C 279.035156 220.496094 278.320312 221.277344 277.808594 220.804688 C 277.082031 220.140625 276.328125 219.453125 275.449219 219.042969 C 274.546875 218.625 273.59375 218.582031 272.90625 218.945312 C 271.503906 219.667969 270.667969 222.367188 268.375 222.066406 C 266.246094 221.78125 265.5625 218.484375 263.28125 218.648438 C 261.019531 218.738281 259.832031 222.332031 260.109375 224.859375 C 260.1875 225.550781 259.140625 225.675781 259.0625 224.972656 Z M 259.0625 224.972656 " fill-opacity="1" fill-rule="nonzero"/><path fill="#2c56fe" d="M 129.769531 155.371094 C 130.640625 154.203125 131.570312 153.023438 132.816406 152.257812 C 137.472656 149.398438 157.570312 151.246094 163.574219 151.742188 C 164.882812 151.851562 165.261719 152.257812 165.101562 153.597656 C 164.605469 157.722656 164 161.832031 163.285156 165.925781 C 162.71875 169.191406 162.054688 169.929688 159.519531 171.210938 C 152.507812 174.753906 149.898438 175.550781 142.113281 174.945312 C 138.535156 174.667969 134.964844 174.238281 131.421875 173.660156 C 128.746094 173.226562 124.992188 172.921875 123.171875 170.597656 C 119.9375 166.472656 127.402344 158.542969 129.769531 155.371094 Z M 129.769531 155.371094 " fill-opacity="1" fill-rule="nonzero"/><path fill="#000000" d="M 142.074219 175.46875 C 135.882812 174.988281 131.53125 174.195312 130.402344 174.035156 C 127.773438 173.640625 124.5 173.148438 122.753906 170.921875 C 119.332031 166.554688 126.375 159.039062 129.347656 155.058594 C 132.585938 150.710938 133.957031 148.753906 163.617188 151.21875 C 165.316406 151.359375 165.8125 152.109375 165.625 153.660156 C 165.128906 157.773438 164.515625 161.929688 163.804688 166.015625 C 163.210938 169.441406 162.441406 170.324219 159.757812 171.679688 C 152.8125 175.1875 150.113281 176.101562 142.074219 175.46875 Z M 133.089844 152.707031 C 131.9375 153.414062 131.0625 154.519531 130.191406 155.6875 C 127.613281 159.148438 120.664062 166.542969 123.585938 170.273438 C 125.070312 172.171875 128.113281 172.628906 130.558594 172.996094 C 148.300781 175.527344 150.238281 175.308594 159.28125 170.742188 C 161.640625 169.550781 162.222656 168.96875 162.769531 165.832031 C 163.476562 161.765625 164.085938 157.628906 164.582031 153.535156 C 164.699219 152.519531 164.554688 152.351562 163.53125 152.265625 C 158.027344 151.8125 137.589844 149.945312 133.089844 152.707031 Z M 129.769531 155.375 L 129.78125 155.375 Z M 129.769531 155.375 " fill-opacity="1" fill-rule="nonzero"/><path fill="#2c56fe" d="M 155.300781 176.773438 C 153.992188 170.964844 154.496094 170.425781 155.707031 166.835938 C 157.238281 162.269531 159.253906 157.789062 163.117188 152.714844 C 163.746094 151.886719 164.332031 151.832031 164.78125 152.742188 C 165.589844 154.371094 165.929688 156.179688 166.261719 157.964844 C 168.175781 168.277344 170.089844 178.617188 170.804688 189.082031 " fill-opacity="1" fill-rule="nonzero"/><path fill="#000000" d="M 170.277344 189.117188 C 169.566406 178.675781 167.625 168.195312 165.742188 158.0625 C 165.421875 156.332031 165.089844 154.546875 164.3125 152.976562 C 164.15625 152.667969 164.066406 152.613281 164.035156 152.609375 C 164.027344 152.597656 163.878906 152.582031 163.535156 153.035156 C 159.769531 157.976562 157.734375 162.460938 156.203125 167 C 155.03125 170.519531 154.523438 170.9375 155.816406 176.65625 C 155.972656 177.339844 154.9375 177.566406 154.789062 176.890625 C 153.449219 170.992188 153.972656 170.34375 155.207031 166.667969 C 156.757812 162.054688 158.792969 157.523438 162.695312 152.394531 C 162.886719 152.144531 163.460938 151.386719 164.285156 151.582031 C 165.734375 151.9375 166.5 156.375 166.777344 157.871094 C 168.664062 168.03125 170.613281 178.542969 171.328125 189.042969 C 171.375 189.746094 170.328125 189.816406 170.277344 189.117188 Z M 170.277344 189.117188 " fill-opacity="1" fill-rule="nonzero"/><path fill="#2c56fe" d="M 134.820312 203.132812 C 130.199219 192.972656 126.308594 182.484375 123.179688 171.761719 C 122.898438 170.808594 121.769531 169.050781 122.941406 168.375 C 123.691406 167.941406 124.882812 168.035156 125.722656 167.855469 C 134.238281 166.046875 143.152344 166.472656 151.8125 166.90625 C 154.878906 167.0625 156.070312 167.6875 157.035156 171.589844 C 159.203125 180.371094 161.082031 189.230469 162.664062 198.140625 " fill-opacity="1" fill-rule="nonzero"/><path fill="#000000" d="M 134.339844 203.351562 C 126.175781 185.394531 123.144531 172.996094 122.417969 171.238281 C 122.027344 170.28125 121.367188 168.675781 122.679688 167.917969 C 123.558594 167.414062 124.804688 167.511719 125.613281 167.339844 C 134.1875 165.523438 143.097656 165.941406 151.839844 166.382812 C 155.144531 166.550781 156.523438 167.328125 157.542969 171.460938 C 159.710938 180.21875 161.605469 189.164062 163.179688 198.046875 C 163.304688 198.734375 162.261719 198.90625 162.144531 198.230469 C 160.574219 189.371094 158.679688 180.449219 156.523438 171.714844 C 155.617188 168.058594 154.644531 167.582031 151.785156 167.433594 C 143.144531 167.003906 134.308594 166.574219 125.832031 168.371094 C 124.992188 168.546875 123.800781 168.488281 123.207031 168.832031 C 122.519531 169.226562 123.425781 170.730469 123.683594 171.617188 C 126.796875 182.285156 130.691406 192.78125 135.300781 202.917969 C 135.585938 203.550781 134.628906 203.984375 134.339844 203.351562 Z M 134.339844 203.351562 " fill-opacity="1" fill-rule="nonzero"/><path fill="#f6d356" d="M 132.960938 183.699219 C 133.058594 184 133.175781 184.308594 133.410156 184.527344 C 134.3125 185.367188 137.324219 184.71875 138.515625 184.398438 C 140.910156 183.753906 141.246094 182.753906 140.742188 180.9375 C 140.441406 179.839844 140.082031 178.757812 139.667969 177.695312 C 139.355469 176.894531 138.964844 176.050781 138.214844 175.632812 C 136.78125 174.832031 133.316406 176.199219 132.339844 177.453125 C 131.214844 178.894531 132.441406 182.167969 132.960938 183.699219 Z M 132.960938 183.699219 " fill-opacity="1" fill-rule="nonzero"/><path fill="#f6d356" d="M 144.285156 181.015625 C 144.554688 181.8125 144.828125 182.125 145.796875 182.214844 C 147.15625 182.339844 148.523438 182.066406 149.839844 181.710938 C 152.234375 181.070312 152.570312 180.066406 152.070312 178.253906 C 151.765625 177.15625 151.40625 176.070312 150.992188 175.011719 C 150.683594 174.210938 150.292969 173.367188 149.539062 172.945312 C 148.109375 172.144531 144.640625 173.515625 143.664062 174.765625 C 142.539062 176.210938 143.769531 179.484375 144.285156 181.015625 Z M 144.285156 181.015625 " fill-opacity="1" fill-rule="nonzero"/><path fill="#f6d356" d="M 180.109375 148.894531 C 180.128906 149.210938 180.15625 149.539062 180.324219 149.808594 C 180.972656 150.859375 184.046875 151.035156 185.28125 151.042969 C 187.757812 151.0625 188.347656 150.1875 188.347656 148.304688 C 188.347656 147.164062 188.289062 146.023438 188.175781 144.890625 C 188.085938 144.035156 187.933594 143.117188 187.324219 142.515625 C 186.15625 141.363281 182.449219 141.761719 181.175781 142.707031 C 179.707031 143.800781 180.019531 147.28125 180.109375 148.894531 Z M 180.109375 148.894531 " fill-opacity="1" fill-rule="nonzero"/><path fill="#f6d356" d="M 180.863281 163.597656 C 180.910156 164.4375 181.09375 164.808594 182.003906 165.15625 C 183.28125 165.640625 184.671875 165.738281 186.035156 165.746094 C 188.511719 165.761719 189.101562 164.886719 189.101562 163.003906 C 189.101562 161.863281 189.042969 160.726562 188.929688 159.59375 C 188.839844 158.738281 188.691406 157.820312 188.078125 157.21875 C 186.910156 156.0625 183.203125 156.460938 181.929688 157.40625 C 180.460938 158.5 180.773438 161.984375 180.863281 163.597656 Z M 180.863281 163.597656 " fill-opacity="1" fill-rule="nonzero"/><path fill="#f6d356" d="M 167.128906 148.503906 C 167.242188 149.335938 167.449219 149.695312 168.386719 149.96875 C 169.695312 150.351562 171.089844 150.339844 172.449219 150.242188 C 174.921875 150.066406 175.441406 149.148438 175.296875 147.269531 C 175.207031 146.132812 175.058594 145.003906 174.855469 143.882812 C 174.703125 143.039062 174.480469 142.132812 173.824219 141.582031 C 172.566406 140.523438 168.902344 141.207031 167.707031 142.25 C 166.328125 143.453125 166.910156 146.902344 167.128906 148.503906 Z M 167.128906 148.503906 " fill-opacity="1" fill-rule="nonzero"/><path fill="#f6d356" d="M 138.214844 196.855469 C 138.316406 197.15625 138.429688 197.464844 138.664062 197.679688 C 139.566406 198.519531 142.578125 197.871094 143.769531 197.550781 C 146.164062 196.910156 146.5 195.910156 146 194.09375 C 145.695312 192.996094 145.335938 191.914062 144.921875 190.851562 C 144.613281 190.050781 144.222656 189.207031 143.46875 188.785156 C 142.039062 187.988281 138.570312 189.355469 137.59375 190.605469 C 136.46875 192.050781 137.699219 195.324219 138.214844 196.855469 Z M 138.214844 196.855469 " fill-opacity="1" fill-rule="nonzero"/><path fill="#f6d356" d="M 148.207031 194.925781 C 148.476562 195.722656 148.75 196.035156 149.71875 196.125 C 151.078125 196.253906 152.445312 195.976562 153.761719 195.621094 C 156.15625 194.980469 156.492188 193.980469 155.992188 192.164062 C 155.6875 191.066406 155.328125 189.984375 154.914062 188.921875 C 154.605469 188.121094 154.214844 187.277344 153.464844 186.859375 C 152.03125 186.058594 148.5625 187.425781 147.585938 188.675781 C 146.460938 190.121094 147.691406 193.394531 148.207031 194.925781 Z M 148.207031 194.925781 " fill-opacity="1" fill-rule="nonzero"/><path fill="#5fff9f" d="M 184.023438 178.734375 C 185.601562 178.550781 187.15625 179.191406 188.5625 179.933594 C 184.605469 178.464844 183.519531 173.328125 186.542969 170.382812 C 187.90625 169.054688 189.144531 169.257812 190.5625 170.488281 C 192.742188 172.375 194.164062 175.113281 194.453125 177.984375 C 194.230469 176.566406 194.847656 175.023438 196.058594 174.25 C 197.265625 173.480469 199.007812 173.609375 200.015625 174.632812 C 201.019531 175.652344 201.078125 177.492188 200.0625 178.503906 C 202.574219 175.996094 205.195312 180.34375 205.410156 182.414062 C 205.695312 185.164062 202.320312 187.164062 200.136719 187.972656 C 193.246094 190.519531 183.832031 187.410156 181.628906 184.753906 C 179.769531 182.511719 181.101562 179.066406 184.023438 178.734375 Z M 184.023438 178.734375 " fill-opacity="1" fill-rule="nonzero"/><path fill="#5fff9f" d="M 122.773438 206.890625 C 124.90625 206.644531 127.003906 207.507812 128.898438 208.511719 C 123.5625 206.527344 122.09375 199.597656 126.175781 195.621094 C 128.011719 193.832031 129.679688 194.105469 131.597656 195.765625 C 134.535156 198.3125 136.453125 202.007812 136.847656 205.878906 C 136.542969 203.96875 137.378906 201.882812 139.011719 200.84375 C 140.640625 199.804688 142.992188 199.980469 144.347656 201.355469 C 145.703125 202.734375 145.785156 205.21875 144.417969 206.582031 C 147.804688 203.199219 151.339844 209.0625 151.628906 211.855469 C 152.011719 215.566406 147.460938 218.265625 144.515625 219.355469 C 135.214844 222.792969 122.515625 218.59375 119.546875 215.015625 C 117.035156 211.988281 118.832031 207.339844 122.773438 206.890625 Z M 122.773438 206.890625 " fill-opacity="1" fill-rule="nonzero"/><path fill="#000000" d="M 168.550781 261.648438 C 163.375 261.222656 161.089844 261.167969 158.039062 259.675781 C 157.414062 259.371094 157.875 258.429688 158.5 258.730469 C 161.167969 260.035156 163.488281 260.238281 168.589844 260.59375 C 169.261719 260.640625 169.222656 261.648438 168.550781 261.648438 Z M 179.003906 260.472656 C 187.421875 259.449219 189.042969 256.699219 189.617188 257.882812 C 189.742188 258.144531 189.632812 258.457031 189.371094 258.585938 C 186.246094 260.101562 182.894531 261.058594 179.128906 261.515625 C 178.449219 261.613281 178.300781 260.554688 179.003906 260.472656 Z M 326.605469 252.667969 C 325.953125 251.265625 325.273438 249.765625 324.71875 248.246094 C 324.480469 247.589844 325.472656 247.234375 325.707031 247.886719 C 326.25 249.367188 326.917969 250.84375 327.5625 252.226562 C 327.855469 252.863281 326.898438 253.300781 326.605469 252.667969 Z M 197.316406 252.414062 C 196.46875 251.523438 199.007812 251.1875 203.964844 243.675781 C 204.347656 243.089844 205.230469 243.675781 204.84375 244.253906 C 202.808594 247.34375 200.523438 250.09375 198.0625 252.433594 C 197.851562 252.632812 197.519531 252.625 197.316406 252.414062 Z M 150.78125 251.855469 C 149.613281 248.527344 150.011719 244.851562 152.386719 241.375 C 152.78125 240.804688 153.644531 241.394531 153.253906 241.972656 C 151.890625 243.964844 151.203125 246.058594 151.203125 248.1875 C 151.203125 251.046875 152.34375 251.863281 151.453125 252.179688 C 151.1875 252.273438 150.878906 252.136719 150.78125 251.855469 Z M 324.273438 237.617188 C 325.222656 234.734375 326.433594 232.417969 325.804688 227.566406 C 325.71875 226.875 326.761719 226.742188 326.851562 227.433594 C 327.507812 232.546875 326.171875 235.21875 325.273438 237.949219 C 325.054688 238.609375 324.054688 238.277344 324.273438 237.617188 Z M 208.910156 234.496094 C 211.09375 229.507812 212.363281 224.953125 212.460938 224.65625 C 212.65625 223.988281 213.667969 224.292969 213.46875 224.960938 C 213.351562 225.308594 212.128906 229.765625 209.875 234.917969 C 209.597656 235.554688 208.628906 235.136719 208.910156 234.496094 Z M 322.699219 217.710938 C 321.109375 214.21875 319.433594 211.253906 317.582031 208.652344 C 317.175781 208.082031 318.035156 207.472656 318.4375 208.039062 C 320.332031 210.699219 322.039062 213.71875 323.660156 217.277344 C 323.949219 217.914062 322.988281 218.34375 322.699219 217.710938 Z M 215.199219 214.507812 C 216.019531 211.453125 217.042969 207.867188 218.394531 204.421875 C 218.65625 203.769531 219.628906 204.160156 219.378906 204.804688 C 218.042969 208.203125 217.027344 211.753906 216.214844 214.78125 C 216.035156 215.453125 215.015625 215.179688 215.199219 214.507812 Z M 302.0625 194.972656 C 301.46875 194.613281 302.003906 193.714844 302.605469 194.070312 C 305.613281 195.882812 308.605469 197.945312 311.25 200.210938 C 311.472656 200.398438 311.496094 200.730469 311.308594 200.953125 C 310.578125 201.796875 310.199219 199.875 302.0625 194.972656 Z M 223.472656 195.070312 C 225.632812 192.300781 228.324219 189.933594 231.46875 188.03125 C 232.074219 187.671875 232.605469 188.574219 232.015625 188.929688 C 228.980469 190.765625 226.386719 193.050781 224.304688 195.71875 C 223.875 196.269531 223.046875 195.621094 223.472656 195.070312 Z M 282.917969 186.691406 C 282.246094 186.503906 282.535156 185.488281 283.203125 185.679688 C 286.59375 186.636719 289.949219 187.828125 293.183594 189.226562 C 293.453125 189.339844 293.574219 189.652344 293.460938 189.917969 C 293.011719 190.941406 292.027344 189.261719 282.917969 186.691406 Z M 241.289062 183.925781 C 244.492188 183.054688 248.015625 182.472656 251.761719 182.195312 C 252.441406 182.125 252.550781 183.191406 251.839844 183.246094 C 248.160156 183.519531 244.703125 184.089844 241.5625 184.941406 C 240.890625 185.121094 240.617188 184.105469 241.289062 183.925781 Z M 272.695312 184.425781 C 269.167969 183.824219 265.667969 183.417969 262.296875 183.210938 C 262.003906 183.191406 261.785156 182.945312 261.800781 182.652344 C 261.820312 182.363281 262.070312 182.128906 262.359375 182.160156 C 265.769531 182.367188 269.304688 182.78125 272.871094 183.386719 C 273.554688 183.503906 273.382812 184.542969 272.695312 184.425781 Z M 272.695312 184.425781 " fill-opacity="1" fill-rule="nonzero"/><path fill="#f6d356" d="M 310.1875 155.382812 C 310.042969 157.738281 309.726562 160.054688 309.15625 162.351562 C 307.640625 168.5 304.1875 174.417969 298.667969 177.511719 C 293.191406 180.585938 285.523438 180.101562 281.332031 175.449219 C 282.707031 173.730469 284.304688 169.261719 284.304688 163.71875 C 284.304688 160.308594 283.714844 156.476562 282.617188 152.601562 C 280.890625 146.453125 277.902344 140.15625 274.046875 135.125 C 274.109375 135.082031 274.171875 135.0625 274.234375 135.039062 C 276.953125 134.15625 279.839844 135.628906 282.261719 137.148438 C 285.589844 139.253906 288.769531 141.566406 291.800781 144.09375 L 310.167969 143.484375 C 310.335938 147.441406 310.484375 151.445312 310.1875 155.382812 Z M 310.1875 155.382812 " fill-opacity="1" fill-rule="nonzero"/><path fill="#000000" d="M 300.765625 147.730469 C 300.585938 147.730469 300.410156 147.640625 300.3125 147.476562 C 294.550781 137.832031 283.097656 131.988281 272.449219 133.277344 C 272.183594 133.320312 271.898438 133.105469 271.867188 132.816406 C 271.832031 132.527344 272.035156 132.265625 272.324219 132.230469 C 283.363281 130.894531 295.25 136.945312 301.21875 146.933594 C 301.367188 147.183594 301.285156 147.507812 301.035156 147.65625 C 300.949219 147.707031 300.859375 147.730469 300.765625 147.730469 Z M 300.765625 147.730469 " fill-opacity="1" fill-rule="nonzero"/><path fill="#000000" d="M 253.042969 138.113281 C 252.953125 137.835938 253.109375 137.539062 253.386719 137.453125 L 261.550781 134.914062 C 262.222656 134.710938 262.527344 135.714844 261.863281 135.917969 L 253.699219 138.460938 C 253.425781 138.546875 253.128906 138.394531 253.042969 138.113281 Z M 253.042969 138.113281 " fill-opacity="1" fill-rule="nonzero"/><path fill="#000000" d="M 218.355469 73.320312 C 218.769531 73.039062 219.054688 72.609375 219.351562 72.207031 C 220.5625 70.546875 223.109375 67.882812 225.171875 68.019531 C 229.6875 68.316406 231.980469 78.960938 222.113281 83.453125 C 216.507812 86.007812 208.632812 84.570312 206.777344 77.957031 C 204.273438 69.039062 215.414062 75.308594 218.355469 73.320312 Z M 218.355469 73.320312 " fill-opacity="1" fill-rule="nonzero"/><path fill="#000000" d="M 255.179688 102.277344 C 256.199219 102.125 257.210938 102.519531 258.191406 102.84375 C 268.121094 106.128906 279.0625 102.566406 287.894531 96.796875 C 293.902344 92.875 296.582031 89.820312 300.410156 79.78125 C 301.679688 76.453125 302.910156 72.976562 302.742188 69.398438 C 302.25 59.109375 288.703125 45.144531 281.976562 37.398438 C 281.328125 36.648438 280.640625 35.78125 280.703125 34.773438 C 280.980469 30.203125 296.964844 40.785156 298.640625 42.347656 C 303.917969 47.257812 307.742188 53.742188 309.640625 60.859375 C 318.476562 93.949219 286.234375 120.917969 258.125 107.046875 C 254.59375 105.304688 251.269531 102.867188 255.179688 102.277344 Z M 255.179688 102.277344 " fill-opacity="1" fill-rule="nonzero"/><path fill="#000000" d="M 252.773438 138.675781 C 252.773438 138.675781 252.769531 138.675781 252.769531 138.675781 C 252.246094 138.671875 252.085938 138.035156 252.421875 137.699219 C 252.828125 137.296875 253.492188 137.738281 253.285156 138.269531 C 253.226562 138.5 253.019531 138.675781 252.773438 138.675781 Z M 252.773438 138.675781 " fill-opacity="1" fill-rule="nonzero"/><path fill="#000000" d="M 267.695312 128.992188 L 271.628906 106.570312 L 257.753906 106.570312 C 256.855469 112.640625 256.007812 118.796875 255.234375 124.875 C 255.195312 125.164062 254.929688 125.367188 254.644531 125.328125 C 254.355469 125.292969 254.152344 125.03125 254.1875 124.742188 C 254.984375 118.507812 255.855469 112.191406 256.78125 105.96875 C 256.820312 105.710938 257.039062 105.519531 257.300781 105.519531 L 272.253906 105.519531 C 272.582031 105.519531 272.832031 105.816406 272.773438 106.136719 L 268.730469 129.171875 C 268.609375 129.863281 267.574219 129.671875 267.695312 128.992188 Z M 267.695312 128.992188 " fill-opacity="1" fill-rule="nonzero"/><path fill="#000000" d="M 262.253906 175.945312 L 262.191406 175.761719 C 261.929688 174.976562 261.800781 174.710938 260.578125 174.933594 C 255.253906 175.765625 249.199219 176.386719 244.585938 173.339844 C 241.039062 171.035156 240.867188 167.777344 242.636719 165.992188 C 241.074219 165.800781 239.472656 165.441406 238.117188 164.636719 C 235.425781 163.230469 234.769531 159.898438 235.878906 157.890625 C 229.136719 159.222656 225.621094 153.460938 232.261719 147.984375 C 236.558594 144.429688 241.476562 141.5625 246.714844 139.539062 C 241.179688 140.378906 234.929688 141.308594 229.0625 139.933594 C 228.007812 139.675781 226.9375 139.320312 226.214844 138.480469 C 225.234375 137.339844 225.15625 135.488281 226.03125 133.976562 C 226.789062 132.644531 228.023438 131.753906 229.242188 130.992188 C 235.367188 127.109375 243.117188 124.808594 251.648438 124.34375 C 252.671875 124.28125 253.707031 124.257812 254.722656 124.28125 C 259.535156 124.332031 263.363281 125.28125 266.425781 127.179688 C 274.667969 132.425781 280.507812 143.136719 283.125 152.460938 C 284.242188 156.40625 284.832031 160.300781 284.832031 163.71875 C 284.832031 174.597656 279.359375 180.519531 273.53125 181.835938 C 269.078125 182.960938 263.667969 180.351562 262.253906 175.945312 Z M 263.191406 175.425781 L 263.253906 175.609375 C 264.496094 179.488281 269.285156 181.820312 273.285156 180.8125 C 278.65625 179.597656 283.777344 174.152344 283.777344 163.71875 C 283.777344 160.394531 283.203125 156.601562 282.109375 152.746094 C 279.589844 143.765625 273.890625 133.171875 265.863281 128.074219 C 262.976562 126.277344 259.324219 125.382812 254.707031 125.332031 C 253.714844 125.316406 252.710938 125.332031 251.710938 125.394531 C 243.355469 125.847656 235.777344 128.09375 229.800781 131.882812 C 228.699219 132.574219 227.589844 133.367188 226.945312 134.5 C 226.390625 135.457031 226.238281 136.890625 227.011719 137.792969 C 227.542969 138.410156 228.429688 138.695312 229.308594 138.910156 C 235.839844 140.4375 242.839844 139.058594 249.945312 137.976562 L 253.464844 137.425781 C 254.136719 137.328125 254.324219 138.292969 253.679688 138.457031 C 253.40625 138.523438 253.152344 138.585938 252.941406 138.65625 C 245.605469 140.523438 238.699219 144.023438 232.929688 148.796875 C 227.910156 152.941406 229.472656 156.613281 233.261719 157.027344 C 234.671875 157.160156 236.074219 156.808594 237.632812 156.371094 C 238.28125 156.191406 238.585938 157.140625 237.957031 157.371094 C 235.835938 158.152344 235.742188 162.203125 238.632812 163.71875 C 240.355469 164.742188 242.589844 164.972656 244.554688 165.109375 C 245.203125 165.15625 245.203125 166.113281 244.558594 166.160156 C 243.28125 166.261719 242.40625 167.804688 242.613281 169.089844 C 242.882812 170.753906 244.324219 171.914062 245.160156 172.460938 C 249.464844 175.300781 255.285156 174.691406 260.402344 173.898438 C 262.113281 173.578125 262.757812 174.125 263.191406 175.425781 Z M 263.191406 175.425781 " fill-opacity="1" fill-rule="nonzero"/><path fill="#000000" d="M 237.636719 156.378906 L 266.214844 148.160156 C 266.878906 147.960938 267.179688 148.976562 266.507812 149.171875 L 237.929688 157.390625 C 237.25 157.589844 236.976562 156.570312 237.636719 156.378906 Z M 237.636719 156.378906 " fill-opacity="1" fill-rule="nonzero"/><path fill="#000000" d="M 244.230469 165.058594 C 251.679688 162.386719 259.285156 159.828125 266.832031 157.457031 C 267.507812 157.253906 267.800781 158.253906 267.148438 158.460938 C 259.613281 160.828125 252.023438 163.382812 244.585938 166.046875 C 243.921875 166.28125 243.578125 165.289062 244.230469 165.058594 Z M 244.230469 165.058594 " fill-opacity="1" fill-rule="nonzero"/><path fill="#000000" d="M 261.039062 174.414062 C 260.882812 174.167969 260.953125 173.84375 261.199219 173.6875 C 264.429688 171.609375 267.957031 170.089844 271.683594 169.167969 C 272.339844 168.988281 272.625 170.019531 271.9375 170.1875 C 263.46875 172.285156 261.757812 175.53125 261.039062 174.414062 Z M 261.039062 174.414062 " fill-opacity="1" fill-rule="nonzero"/><path fill="#000000" d="M 290.261719 48.246094 C 278.71875 40.257812 262.648438 41.839844 253.78125 50.960938 C 241.589844 63.445312 239.617188 82.097656 251.765625 95.898438 C 252.074219 95.828125 252.382812 96.183594 252.449219 96.542969 C 246.546875 92.46875 241.90625 86.179688 239.652344 78.464844 C 236.375 67.140625 240.984375 54.710938 248.832031 46.710938 C 259.117188 36.191406 278.542969 35.632812 290.261719 48.246094 Z M 290.261719 48.246094 " fill-opacity="1" fill-rule="nonzero"/><path fill="#5fff9f" d="M 305.015625 59.585938 C 297.019531 29.652344 261.636719 23.296875 244.320312 41.015625 C 234.5625 50.980469 228.832031 66.4375 232.898438 80.539062 C 239.46875 103.3125 262.9375 115.949219 284.289062 106.105469 C 299.632812 99.019531 310.511719 80.199219 305.015625 59.585938 Z M 280.984375 99.039062 C 263.765625 106.96875 244.988281 96.75 239.660156 78.460938 C 236.378906 67.140625 240.980469 54.71875 248.832031 46.710938 C 259.1875 36.101562 278.632812 35.714844 290.261719 48.238281 C 290.296875 48.238281 290.296875 48.277344 290.324219 48.277344 C 293.703125 51.882812 296.234375 56.460938 297.628906 61.632812 C 302.121094 78.28125 293.175781 93.402344 280.984375 99.039062 Z M 280.984375 99.039062 " fill-opacity="1" fill-rule="nonzero"/><path fill="#000000" d="M 272.445312 54.035156 C 263.914062 53.382812 257.492188 61.617188 260.019531 69.640625 C 267.265625 85.117188 267.074219 84.738281 267.707031 86.105469 C 267.9375 86.609375 268.167969 87.117188 268.421875 87.601562 C 268.613281 88.019531 268.824219 88.84375 269.347656 88.925781 C 270.148438 89.054688 269.9375 88.273438 281.355469 73.199219 C 286.914062 65.40625 281.816406 54.710938 272.445312 54.035156 Z M 271.875 61.890625 C 274.445312 62.078125 276.425781 64.226562 276.425781 66.753906 C 276.425781 66.878906 276.40625 67.007812 276.40625 67.132812 C 276.214844 69.890625 273.835938 71.890625 271.160156 71.679688 C 268.464844 71.492188 266.421875 69.132812 266.609375 66.4375 C 266.820312 63.722656 269.203125 61.699219 271.875 61.890625 Z M 271.875 61.890625 " fill-opacity="1" fill-rule="nonzero"/><path fill="#000000" d="M 100.679688 63.972656 C 98.765625 57.976562 99.753906 52.089844 103.617188 46.480469 C 113.195312 32.554688 143.523438 20.429688 155.5 31.292969 C 161.03125 36.265625 162.714844 46.863281 154.613281 56.992188 C 156.128906 60.429688 157.125 61.230469 157.460938 62.792969 C 157.714844 63.96875 157.359375 65.132812 156.542969 65.753906 C 155.46875 66.570312 154.085938 66.25 152.875 65.832031 C 151.242188 65.261719 149.585938 64.585938 147.945312 63.820312 C 126.671875 82.019531 104.75 76.636719 100.679688 63.972656 Z M 104.484375 47.074219 C 100.816406 52.40625 99.871094 57.984375 101.683594 63.652344 C 105.515625 75.578125 126.738281 80.777344 147.515625 62.800781 C 148.050781 62.34375 148.238281 63.097656 153.222656 64.839844 C 154.167969 65.164062 155.226562 65.429688 155.90625 64.917969 C 156.460938 64.492188 156.570312 63.652344 156.429688 63.015625 C 156.164062 61.765625 155.019531 60.605469 153.519531 57.117188 C 153.441406 56.9375 153.46875 56.730469 153.59375 56.578125 C 155.855469 53.808594 157.453125 50.898438 158.34375 47.933594 C 160.148438 41.976562 158.71875 35.601562 154.792969 32.074219 C 143.410156 21.757812 113.753906 33.597656 104.484375 47.074219 Z M 104.484375 47.074219 " fill-opacity="1" fill-rule="nonzero"/><path fill="#5fff9f" d="M 137.855469 57.828125 C 137.265625 60.394531 136.339844 61.574219 132.738281 61.089844 C 128.441406 60.519531 119.722656 58.480469 119.554688 53.761719 C 119.46875 51.03125 122.296875 47.773438 129.136719 49.445312 C 129.136719 49.191406 129.117188 48.960938 129.117188 48.707031 C 128.652344 46.667969 129.03125 44.390625 130.378906 42.792969 C 133.222656 39.46875 138.433594 40.4375 139.394531 45.675781 C 139.933594 48.617188 138.535156 54.894531 137.855469 57.828125 Z M 137.855469 57.828125 " fill-opacity="1" fill-rule="nonzero"/><path fill="#000000" d="M 304.28125 38.523438 L 307.570312 28.203125 C 307.78125 27.539062 308.785156 27.859375 308.574219 28.523438 L 305.285156 38.84375 C 305.074219 39.507812 304.070312 39.1875 304.28125 38.523438 Z M 304.28125 38.523438 " fill-opacity="1" fill-rule="nonzero"/><path fill="#000000" d="M 308.574219 42.5625 C 311.433594 39.21875 314.640625 36.15625 318.109375 33.453125 C 318.65625 33.027344 319.304688 33.855469 318.753906 34.285156 C 315.34375 36.941406 312.1875 39.957031 309.375 43.246094 C 308.921875 43.777344 308.121094 43.089844 308.574219 42.5625 Z M 308.574219 42.5625 " fill-opacity="1" fill-rule="nonzero"/><path fill="#000000" d="M 311.128906 47.488281 L 323.414062 44.878906 C 324.109375 44.746094 324.308594 45.765625 323.632812 45.910156 L 311.347656 48.515625 C 310.660156 48.652344 310.453125 47.632812 311.128906 47.488281 Z M 311.128906 47.488281 " fill-opacity="1" fill-rule="nonzero"/><path fill="#000000" d="M 115.570312 127.605469 C 115.390625 125.820312 115.683594 124.105469 116.371094 122.671875 C 113.59375 120.132812 113.144531 116.855469 113.089844 113.105469 C 112.972656 104.9375 114.320312 96.90625 117.09375 89.226562 C 117.328125 88.578125 118.320312 88.925781 118.082031 89.582031 C 115.355469 97.144531 114.027344 105.050781 114.140625 113.089844 C 114.191406 116.425781 114.53125 119.433594 116.90625 121.734375 C 119.863281 117.320312 125.8125 118.734375 126.457031 121.714844 C 127.082031 124.59375 122.144531 126.9375 117.214844 123.359375 C 115.660156 126.921875 117.136719 130.761719 119.105469 134.132812 C 120.433594 136.410156 125.332031 143.777344 132.078125 142.792969 C 132.761719 142.691406 132.921875 143.738281 132.226562 143.835938 C 123.675781 145.070312 116.191406 133.78125 115.570312 127.605469 Z M 117.714844 122.421875 C 122.394531 125.949219 127.289062 123.164062 124.75 120.914062 C 123.027344 119.390625 119.523438 119.601562 117.714844 122.421875 Z M 117.714844 122.421875 " fill-opacity="1" fill-rule="nonzero"/></svg>